<svg width="98" height="90" viewBox="0 0 98 90" fill="none" xmlns="http://www.w3.org/2000/svg">
<path d="M18.5681 71.0642C16.9681 63.8642 11.5681 64.0642 9.06811 65.0642C5.73471 66.7309 -0.7321 71.3642 0.0678997 76.5642C0.8679 81.7642 3.40123 84.3976 4.5679 85.0643C6.23457 86.0642 11.1679 88.2642 17.5679 89.0642C23.9679 89.8642 33.6984 82.1284 35.0681 80.5642C36.4378 79 39.0679 74.5642 39.0679 74.5642C40.068 76.5642 42.6681 81.1642 45.0679 83.5642C47.4677 85.9642 51.3828 88.0075 56.0679 89.0642C58 89.5 63.107 89.0411 68.0679 87.5642C74.3087 85.7062 81.0679 79.0642 83.5679 75.5642C86.5679 70.7309 92.3679 60.4642 91.5679 58.0642C90.7679 55.6642 88.5679 56.3976 87.5679 57.0642C86.2346 61.3976 81.9679 71.6642 75.5679 78.0642C69.1679 84.4642 61.9012 85.0642 59.0679 84.5642C56.7346 84.2309 51.7679 82.1642 50.5679 76.5642C49.3679 70.9642 51.0679 62.5642 52.0679 59.0642C52.0679 59.0642 57.6358 37.6284 59.0679 32.0642C60.5 26.5 60.8679 19.7642 66.0679 12.5642C71.2679 5.36421 78.5679 4.56421 81.5679 5.06421L84.5679 5.56421C84.9012 5.56421 85.9679 5.66421 87.5679 6.06421C89.1679 6.46421 89.2346 7.23088 89.0679 7.56421C89.0679 7.23088 88.2679 6.96421 85.0679 8.56421C81.8679 10.1642 80.0679 14.8975 79.5679 17.0642C79.4012 19.3975 80.7679 24.1642 87.5679 24.5642C94.3679 24.9642 97.0679 16.7309 97.5679 12.5642C97.5679 12.0642 97.3679 10.4642 96.5679 8.06421C95.7679 5.66421 91.9321 3.43579 90 2.5C81.9321 0.435791 79.4321 0.435791 78 0.5C76.1809 0.58156 73.5 0.802963 73 1C72.5 1.19704 69 1.81542 65.0679 6.06421C60.5 11 60.4012 12.8975 59.0679 15.0642C58.5679 14.0642 57.2679 11.5642 56.0679 9.5643C54.8679 7.56437 51.2346 4.73103 49.5679 3.56435C46.5679 1.89769 38.6679 -0.935646 31.0679 1.06435C23.4679 3.06435 16.5679 10.231 14.0679 13.5644L9.06811 22.5644C7.73478 24.731 5.36811 29.5644 6.56811 31.5644C7.76811 33.5644 10.0681 32.3977 11.0681 31.5644C12.2348 28.0643 15.6681 19.5643 20.0681 13.5644C24.4681 7.5644 32.9014 5.06434 36.5681 4.5643C38.4014 4.39763 42.9681 5.1643 46.5681 9.5643C50.1681 13.9643 49.0681 19.0643 48.0681 21.0643L42.0681 46.0643C41.0681 51.3976 38.2681 63.8643 35.0681 71.0642C31.8681 78.2642 28.7348 81.0643 27.5681 81.5643C25.7348 82.7309 21.6681 85.0643 20.0681 85.0643C18.4681 85.0643 14.2364 85.1947 11.0681 83.5643C9 82.5 9.06811 81.5643 9.06811 81.5643C12.9014 81.0643 20.1681 78.2642 18.5681 71.0642Z" fill="#2C7B8C"/>
</svg>
