<svg width="1114" height="397" viewBox="0 0 1114 397" fill="none" xmlns="http://www.w3.org/2000/svg">
<path d="M926.3 137.082C926.3 141.088 922.88 144.336 918.65 144.336C914.43 144.336 911 141.088 911 137.082C911 133.076 914.43 129.828 918.65 129.828C922.86 129.828 926.3 133.076 926.3 137.082Z" stroke="#2E8256" stroke-width="3" stroke-miterlimit="10" stroke-linecap="round" stroke-linejoin="round"/>
<path d="M924.18 142.086L929.58 147.216" stroke="#2E8256" stroke-width="3" stroke-miterlimit="10" stroke-linecap="round" stroke-linejoin="round"/>
<path d="M372 94.7939L380.049 102.425" stroke="#2E8256" stroke-width="3" stroke-miterlimit="10" stroke-linecap="round" stroke-linejoin="round"/>
<path d="M380.049 94.7939L372 102.425" stroke="#2E8256" stroke-width="3" stroke-miterlimit="10" stroke-linecap="round" stroke-linejoin="round"/>
<path d="M1104 296.478L1112.05 304.11" stroke="#2E8256" stroke-width="3" stroke-miterlimit="10" stroke-linecap="round" stroke-linejoin="round"/>
<path d="M1112.05 296.478L1104 304.11" stroke="#2E8256" stroke-width="3" stroke-miterlimit="10" stroke-linecap="round" stroke-linejoin="round"/>
<path d="M73 46.5029L81.049 54.1349" stroke="#2E8256" stroke-width="3" stroke-miterlimit="10" stroke-linecap="round" stroke-linejoin="round"/>
<path d="M81.049 46.5029L73 54.1349" stroke="#2E8256" stroke-width="3" stroke-miterlimit="10" stroke-linecap="round" stroke-linejoin="round"/>
<path d="M823 268.072L831.049 275.703" stroke="#2E8256" stroke-width="3" stroke-miterlimit="10" stroke-linecap="round" stroke-linejoin="round"/>
<path d="M831.049 268.072L823 275.703" stroke="#2E8256" stroke-width="3" stroke-miterlimit="10" stroke-linecap="round" stroke-linejoin="round"/>
<path d="M331.389 311.988V322.78" stroke="#2E8256" stroke-width="3" stroke-miterlimit="10" stroke-linecap="round" stroke-linejoin="round"/>
<path d="M337.095 317.382H325.699" stroke="#2E8256" stroke-width="3" stroke-miterlimit="10" stroke-linecap="round" stroke-linejoin="round"/>
<path d="M202.835 170.474C202.835 174.089 199.742 177.033 195.917 177.033C192.105 177.033 189 174.101 189 170.474C189 166.86 192.092 163.916 195.917 163.916C199.742 163.928 202.835 166.86 202.835 170.474Z" stroke="#2E8256" stroke-width="3" stroke-miterlimit="10" stroke-linecap="round" stroke-linejoin="round"/>
<path d="M15.835 296.409C15.835 300.023 12.742 302.968 8.91701 302.968C5.10501 302.968 2 300.036 2 296.409C2 292.795 5.09201 289.85 8.91701 289.85C12.742 289.863 15.835 292.795 15.835 296.409Z" stroke="#2E8256" stroke-width="3" stroke-miterlimit="10" stroke-linecap="round" stroke-linejoin="round"/>
<path d="M1082.83 69.1589C1082.83 72.7729 1079.74 75.7178 1075.92 75.7178C1072.11 75.7178 1069 72.7859 1069 69.1589C1069 65.5449 1072.09 62.5999 1075.92 62.5999C1079.74 62.6129 1082.83 65.5449 1082.83 69.1589Z" stroke="#2E8256" stroke-width="3" stroke-miterlimit="10" stroke-linecap="round" stroke-linejoin="round"/>
<path d="M670.835 8.5588C670.835 12.173 667.742 15.1179 663.917 15.1179C660.105 15.1179 657 12.1857 657 8.5588C657 4.9445 660.092 2 663.917 2C667.742 2.0126 670.835 4.9445 670.835 8.5588Z" stroke="#2E8256" stroke-width="3" stroke-miterlimit="10" stroke-linecap="round" stroke-linejoin="round"/>
<path d="M716.289 388.051C716.289 391.665 713.197 394.609 709.372 394.609C705.56 394.609 702.455 391.677 702.455 388.051C702.455 384.436 705.547 381.492 709.372 381.492C713.197 381.504 716.289 384.436 716.289 388.051Z" stroke="#2E8256" stroke-width="3" stroke-miterlimit="10" stroke-linecap="round" stroke-linejoin="round"/>
<path d="M114.506 265.247C115.889 265.247 117.011 264.184 117.011 262.872C117.011 261.56 115.889 260.497 114.506 260.497C113.122 260.497 112 261.56 112 262.872C112 264.184 113.122 265.247 114.506 265.247Z" fill="#455A64"/>
<path d="M132.005 265.247C133.389 265.247 134.51 264.184 134.51 262.872C134.51 261.56 133.389 260.497 132.005 260.497C130.621 260.497 129.5 261.56 129.5 262.872C129.5 264.184 130.621 265.247 132.005 265.247Z" fill="#455A64"/>
<path d="M149.492 265.247C150.875 265.247 151.997 264.184 151.997 262.872C151.997 261.56 150.875 260.497 149.492 260.497C148.108 260.497 146.986 261.56 146.986 262.872C146.986 264.184 148.108 265.247 149.492 265.247Z" fill="#455A64"/>
<path d="M166.992 265.247C168.375 265.247 169.497 264.184 169.497 262.872C169.497 261.56 168.375 260.497 166.992 260.497C165.608 260.497 164.487 261.56 164.487 262.872C164.487 264.184 165.608 265.247 166.992 265.247Z" fill="#455A64"/>
<path d="M184.478 265.247C185.862 265.247 186.983 264.184 186.983 262.872C186.983 261.56 185.862 260.497 184.478 260.497C183.094 260.497 181.973 261.56 181.973 262.872C181.973 264.184 183.094 265.247 184.478 265.247Z" fill="#455A64"/>
<path d="M201.978 265.247C203.361 265.247 204.483 264.184 204.483 262.872C204.483 261.56 203.361 260.497 201.978 260.497C200.594 260.497 199.473 261.56 199.473 262.872C199.473 264.184 200.594 265.247 201.978 265.247Z" fill="#455A64"/>
<path d="M114.505 281.828C115.889 281.828 117.01 280.765 117.01 279.453C117.01 278.141 115.889 277.078 114.505 277.078C113.122 277.078 112 278.141 112 279.453C112 280.765 113.122 281.828 114.505 281.828Z" fill="#455A64"/>
<path d="M132.005 281.828C133.389 281.828 134.51 280.765 134.51 279.453C134.51 278.141 133.389 277.078 132.005 277.078C130.621 277.078 129.5 278.141 129.5 279.453C129.5 280.765 130.621 281.828 132.005 281.828Z" fill="#455A64"/>
<path d="M149.492 281.828C150.876 281.828 151.997 280.765 151.997 279.453C151.997 278.141 150.876 277.078 149.492 277.078C148.108 277.078 146.987 278.141 146.987 279.453C146.987 280.765 148.108 281.828 149.492 281.828Z" fill="#455A64"/>
<path d="M166.992 281.828C168.375 281.828 169.497 280.765 169.497 279.453C169.497 278.141 168.375 277.078 166.992 277.078C165.608 277.078 164.486 278.141 164.486 279.453C164.486 280.765 165.608 281.828 166.992 281.828Z" fill="#455A64"/>
<path d="M184.478 281.828C185.862 281.828 186.983 280.765 186.983 279.453C186.983 278.141 185.862 277.078 184.478 277.078C183.094 277.078 181.973 278.141 181.973 279.453C181.973 280.765 183.094 281.828 184.478 281.828Z" fill="#455A64"/>
<path d="M201.978 281.828C203.361 281.828 204.483 280.765 204.483 279.453C204.483 278.141 203.361 277.078 201.978 277.078C200.594 277.078 199.473 278.141 199.473 279.453C199.473 280.765 200.594 281.828 201.978 281.828Z" fill="#455A64"/>
<path d="M114.505 298.421C115.889 298.421 117.01 297.358 117.01 296.046C117.01 294.734 115.889 293.67 114.505 293.67C113.122 293.67 112 294.734 112 296.046C112 297.358 113.122 298.421 114.505 298.421Z" fill="#455A64"/>
<path d="M132.005 298.421C133.389 298.421 134.51 297.358 134.51 296.046C134.51 294.734 133.389 293.67 132.005 293.67C130.621 293.67 129.5 294.734 129.5 296.046C129.5 297.358 130.621 298.421 132.005 298.421Z" fill="#455A64"/>
<path d="M149.492 298.421C150.876 298.421 151.997 297.358 151.997 296.046C151.997 294.734 150.876 293.67 149.492 293.67C148.108 293.67 146.987 294.734 146.987 296.046C146.987 297.358 148.108 298.421 149.492 298.421Z" fill="#455A64"/>
<path d="M166.992 298.421C168.375 298.421 169.497 297.358 169.497 296.046C169.497 294.734 168.375 293.67 166.992 293.67C165.608 293.67 164.486 294.734 164.486 296.046C164.486 297.358 165.608 298.421 166.992 298.421Z" fill="#455A64"/>
<path d="M184.478 298.421C185.862 298.421 186.983 297.358 186.983 296.046C186.983 294.734 185.862 293.67 184.478 293.67C183.094 293.67 181.973 294.734 181.973 296.046C181.973 297.358 183.094 298.421 184.478 298.421Z" fill="#455A64"/>
<path d="M201.978 298.421C203.361 298.421 204.483 297.358 204.483 296.046C204.483 294.734 203.361 293.67 201.978 293.67C200.594 293.67 199.473 294.734 199.473 296.046C199.473 297.358 200.594 298.421 201.978 298.421Z" fill="#455A64"/>
<path d="M114.505 315C115.889 315 117.01 313.937 117.01 312.625C117.01 311.313 115.889 310.25 114.505 310.25C113.122 310.25 112 311.313 112 312.625C112 313.937 113.122 315 114.505 315Z" fill="#455A64"/>
<path d="M132.005 315C133.389 315 134.51 313.937 134.51 312.625C134.51 311.313 133.389 310.25 132.005 310.25C130.621 310.25 129.5 311.313 129.5 312.625C129.5 313.937 130.621 315 132.005 315Z" fill="#455A64"/>
<path d="M149.492 315C150.876 315 151.997 313.937 151.997 312.625C151.997 311.313 150.876 310.25 149.492 310.25C148.108 310.25 146.987 311.313 146.987 312.625C146.987 313.937 148.108 315 149.492 315Z" fill="#455A64"/>
<path d="M166.992 315C168.375 315 169.497 313.937 169.497 312.625C169.497 311.313 168.375 310.25 166.992 310.25C165.608 310.25 164.486 311.313 164.486 312.625C164.486 313.937 165.608 315 166.992 315Z" fill="#455A64"/>
<path d="M184.478 315C185.862 315 186.983 313.937 186.983 312.625C186.983 311.313 185.862 310.25 184.478 310.25C183.094 310.25 181.973 311.313 181.973 312.625C181.973 313.937 183.094 315 184.478 315Z" fill="#455A64"/>
<path d="M201.978 315C203.361 315 204.483 313.937 204.483 312.625C204.483 311.313 203.361 310.25 201.978 310.25C200.594 310.25 199.473 311.313 199.473 312.625C199.473 313.937 200.594 315 201.978 315Z" fill="#455A64"/>
<path d="M767.506 94.8109C768.889 94.8109 770.011 93.7469 770.011 92.4359C770.011 91.1239 768.889 90.0599 767.506 90.0599C766.122 90.0599 765 91.1239 765 92.4359C765 93.7469 766.122 94.8109 767.506 94.8109Z" fill="#455A64"/>
<path d="M784.992 94.8099C786.376 94.8099 787.497 93.7469 787.497 92.4349C787.497 91.1229 786.376 90.0599 784.992 90.0599C783.608 90.0599 782.487 91.1229 782.487 92.4349C782.487 93.7469 783.608 94.8099 784.992 94.8099Z" fill="#455A64"/>
<path d="M802.492 94.8099C803.875 94.8099 804.997 93.7469 804.997 92.4349C804.997 91.1229 803.875 90.0599 802.492 90.0599C801.108 90.0599 799.986 91.1229 799.986 92.4349C799.986 93.7469 801.108 94.8099 802.492 94.8099Z" fill="#455A64"/>
<path d="M767.505 111.404C768.889 111.404 770.01 110.34 770.01 109.028C770.01 107.716 768.889 106.653 767.505 106.653C766.122 106.653 765 107.716 765 109.028C765 110.34 766.122 111.404 767.505 111.404Z" fill="#455A64"/>
<path d="M784.992 111.404C786.376 111.404 787.497 110.34 787.497 109.028C787.497 107.716 786.376 106.653 784.992 106.653C783.608 106.653 782.487 107.716 782.487 109.028C782.487 110.34 783.608 111.404 784.992 111.404Z" fill="#455A64"/>
<path d="M802.492 111.404C803.875 111.404 804.997 110.34 804.997 109.028C804.997 107.716 803.875 106.653 802.492 106.653C801.108 106.653 799.986 107.716 799.986 109.028C799.986 110.34 801.108 111.404 802.492 111.404Z" fill="#455A64"/>
<path d="M328.433 10.9407C329.816 10.9407 330.938 9.87724 330.938 8.56534C330.938 7.25344 329.816 6.18994 328.433 6.18994C327.049 6.18994 325.927 7.25344 325.927 8.56534C325.927 9.87724 327.049 10.9407 328.433 10.9407Z" fill="#455A64"/>
<path d="M345.919 10.9403C347.302 10.9403 348.424 9.87676 348.424 8.56486C348.424 7.25296 347.302 6.18945 345.919 6.18945C344.535 6.18945 343.414 7.25296 343.414 8.56486C343.414 9.87676 344.535 10.9403 345.919 10.9403Z" fill="#455A64"/>
<path d="M363.419 10.9403C364.802 10.9403 365.924 9.87676 365.924 8.56486C365.924 7.25296 364.802 6.18945 363.419 6.18945C362.035 6.18945 360.913 7.25296 360.913 8.56486C360.913 9.87676 362.035 10.9403 363.419 10.9403Z" fill="#455A64"/>
<path d="M328.433 27.533C329.816 27.533 330.938 26.47 330.938 25.158C330.938 23.846 329.816 22.782 328.433 22.782C327.049 22.782 325.927 23.846 325.927 25.158C325.927 26.47 327.049 27.533 328.433 27.533Z" fill="#455A64"/>
<path d="M345.919 27.533C347.302 27.533 348.424 26.47 348.424 25.158C348.424 23.846 347.302 22.782 345.919 22.782C344.535 22.782 343.414 23.846 343.414 25.158C343.414 26.47 344.535 27.533 345.919 27.533Z" fill="#455A64"/>
<path d="M363.419 27.533C364.803 27.533 365.924 26.47 365.924 25.158C365.924 23.846 364.803 22.782 363.419 22.782C362.036 22.782 360.914 23.846 360.914 25.158C360.914 26.47 362.036 27.533 363.419 27.533Z" fill="#455A64"/>
<path d="M1027.99 249.151C1029.37 249.151 1030.5 248.087 1030.5 246.775C1030.5 245.464 1029.37 244.4 1027.99 244.4C1026.61 244.4 1025.49 245.464 1025.49 246.775C1025.49 248.087 1026.61 249.151 1027.99 249.151Z" fill="#455A64"/>
<path d="M1027.99 265.744C1029.38 265.744 1030.5 264.68 1030.5 263.368C1030.5 262.056 1029.38 260.993 1027.99 260.993C1026.61 260.993 1025.49 262.056 1025.49 263.368C1025.49 264.68 1026.61 265.744 1027.99 265.744Z" fill="#455A64"/>
<path d="M1027.99 282.325C1029.38 282.325 1030.5 281.261 1030.5 279.949C1030.5 278.637 1029.38 277.574 1027.99 277.574C1026.61 277.574 1025.49 278.637 1025.49 279.949C1025.49 281.261 1026.61 282.325 1027.99 282.325Z" fill="#455A64"/>
<path d="M1027.99 298.916C1029.38 298.916 1030.5 297.853 1030.5 296.541C1030.5 295.229 1029.38 294.166 1027.99 294.166C1026.61 294.166 1025.49 295.229 1025.49 296.541C1025.49 297.853 1026.61 298.916 1027.99 298.916Z" fill="#455A64"/>
<path d="M1027.99 315.497C1029.38 315.497 1030.5 314.434 1030.5 313.122C1030.5 311.81 1029.38 310.747 1027.99 310.747C1026.61 310.747 1025.49 311.81 1025.49 313.122C1025.49 314.434 1026.61 315.497 1027.99 315.497Z" fill="#455A64"/>
<path d="M1027.99 332.089C1029.38 332.089 1030.5 331.026 1030.5 329.714C1030.5 328.402 1029.38 327.338 1027.99 327.338C1026.61 327.338 1025.49 328.402 1025.49 329.714C1025.49 331.026 1026.61 332.089 1027.99 332.089Z" fill="#455A64"/>
<path d="M1027.99 348.67C1029.38 348.67 1030.5 347.607 1030.5 346.295C1030.5 344.983 1029.38 343.92 1027.99 343.92C1026.61 343.92 1025.49 344.983 1025.49 346.295C1025.49 347.607 1026.61 348.67 1027.99 348.67Z" fill="#455A64"/>
<path d="M1010.49 249.151C1011.88 249.151 1013 248.087 1013 246.775C1013 245.464 1011.88 244.4 1010.49 244.4C1009.11 244.4 1007.99 245.464 1007.99 246.775C1007.99 248.087 1009.11 249.151 1010.49 249.151Z" fill="#455A64"/>
<path d="M1010.49 265.744C1011.88 265.744 1013 264.68 1013 263.368C1013 262.056 1011.88 260.993 1010.49 260.993C1009.11 260.993 1007.99 262.056 1007.99 263.368C1007.99 264.68 1009.11 265.744 1010.49 265.744Z" fill="#455A64"/>
<path d="M1010.49 282.325C1011.88 282.325 1013 281.261 1013 279.949C1013 278.637 1011.88 277.574 1010.49 277.574C1009.11 277.574 1007.99 278.637 1007.99 279.949C1007.99 281.261 1009.11 282.325 1010.49 282.325Z" fill="#455A64"/>
<path d="M1010.49 298.916C1011.88 298.916 1013 297.853 1013 296.541C1013 295.229 1011.88 294.166 1010.49 294.166C1009.11 294.166 1007.99 295.229 1007.99 296.541C1007.99 297.853 1009.11 298.916 1010.49 298.916Z" fill="#455A64"/>
<path d="M1010.49 315.497C1011.88 315.497 1013 314.434 1013 313.122C1013 311.81 1011.88 310.747 1010.49 310.747C1009.11 310.747 1007.99 311.81 1007.99 313.122C1007.99 314.434 1009.11 315.497 1010.49 315.497Z" fill="#455A64"/>
<path d="M1010.49 332.089C1011.88 332.089 1013 331.026 1013 329.714C1013 328.402 1011.88 327.338 1010.49 327.338C1009.11 327.338 1007.99 328.402 1007.99 329.714C1007.99 331.026 1009.11 332.089 1010.49 332.089Z" fill="#455A64"/>
<path d="M1010.49 348.67C1011.88 348.67 1013 347.607 1013 346.295C1013 344.983 1011.88 343.92 1010.49 343.92C1009.11 343.92 1007.99 344.983 1007.99 346.295C1007.99 347.607 1009.11 348.67 1010.49 348.67Z" fill="#455A64"/>
<path d="M993.01 249.151C994.39 249.151 995.51 248.087 995.51 246.775C995.51 245.464 994.39 244.4 993.01 244.4C991.62 244.4 990.5 245.464 990.5 246.775C990.5 248.087 991.62 249.151 993.01 249.151Z" fill="#455A64"/>
<path d="M993.01 265.744C994.39 265.744 995.51 264.68 995.51 263.368C995.51 262.056 994.39 260.993 993.01 260.993C991.62 260.993 990.5 262.056 990.5 263.368C990.5 264.68 991.62 265.744 993.01 265.744Z" fill="#455A64"/>
<path d="M993.01 282.325C994.39 282.325 995.51 281.261 995.51 279.949C995.51 278.637 994.39 277.574 993.01 277.574C991.62 277.574 990.5 278.637 990.5 279.949C990.5 281.261 991.62 282.325 993.01 282.325Z" fill="#455A64"/>
<path d="M993.01 298.916C994.39 298.916 995.51 297.853 995.51 296.541C995.51 295.229 994.39 294.166 993.01 294.166C991.62 294.166 990.5 295.229 990.5 296.541C990.5 297.853 991.62 298.916 993.01 298.916Z" fill="#455A64"/>
<path d="M993.01 315.497C994.39 315.497 995.51 314.434 995.51 313.122C995.51 311.81 994.39 310.747 993.01 310.747C991.62 310.747 990.5 311.81 990.5 313.122C990.5 314.434 991.62 315.497 993.01 315.497Z" fill="#455A64"/>
<path d="M993.01 332.089C994.39 332.089 995.51 331.026 995.51 329.714C995.51 328.402 994.39 327.338 993.01 327.338C991.62 327.338 990.5 328.402 990.5 329.714C990.5 331.026 991.62 332.089 993.01 332.089Z" fill="#455A64"/>
<path d="M993.01 348.67C994.39 348.67 995.51 347.607 995.51 346.295C995.51 344.983 994.39 343.92 993.01 343.92C991.62 343.92 990.5 344.983 990.5 346.295C990.5 347.607 991.62 348.67 993.01 348.67Z" fill="#455A64"/>
<path d="M975.51 249.151C976.89 249.151 978.01 248.087 978.01 246.775C978.01 245.464 976.89 244.4 975.51 244.4C974.12 244.4 973 245.464 973 246.775C973 248.087 974.12 249.151 975.51 249.151Z" fill="#455A64"/>
<path d="M975.51 265.744C976.89 265.744 978.01 264.68 978.01 263.368C978.01 262.056 976.89 260.993 975.51 260.993C974.12 260.993 973 262.056 973 263.368C973 264.68 974.12 265.744 975.51 265.744Z" fill="#455A64"/>
<path d="M975.51 282.325C976.89 282.325 978.01 281.261 978.01 279.949C978.01 278.637 976.89 277.574 975.51 277.574C974.12 277.574 973 278.637 973 279.949C973 281.261 974.12 282.325 975.51 282.325Z" fill="#455A64"/>
<path d="M975.51 298.916C976.89 298.916 978.01 297.853 978.01 296.541C978.01 295.229 976.89 294.166 975.51 294.166C974.12 294.166 973 295.229 973 296.541C973 297.853 974.12 298.916 975.51 298.916Z" fill="#455A64"/>
<path d="M975.51 315.497C976.89 315.497 978.01 314.434 978.01 313.122C978.01 311.81 976.89 310.747 975.51 310.747C974.12 310.747 973 311.81 973 313.122C973 314.434 974.12 315.497 975.51 315.497Z" fill="#455A64"/>
<path d="M975.51 332.089C976.89 332.089 978.01 331.026 978.01 329.714C978.01 328.402 976.89 327.338 975.51 327.338C974.12 327.338 973 328.402 973 329.714C973 331.026 974.12 332.089 975.51 332.089Z" fill="#455A64"/>
<path d="M975.51 348.67C976.89 348.67 978.01 347.607 978.01 346.295C978.01 344.983 976.89 343.92 975.51 343.92C974.12 343.92 973 344.983 973 346.295C973 347.607 974.12 348.67 975.51 348.67Z" fill="#455A64"/>
</svg>
