<svg width="372" height="214" viewBox="0 0 372 214" fill="none" xmlns="http://www.w3.org/2000/svg">
<path d="M361.641 0.702026H7.45752V212.56H361.641V0.702026Z" fill="white"/>
<path d="M362.309 213.25H6.77734V0H362.309V213.25ZM8.07968 211.859H360.961V1.39245H8.12504L8.07968 211.859Z" fill="white"/>
<path d="M358.563 6.61096H15.3911V205.282H358.563V6.61096Z" fill="#24282D"/>
<path d="M359.253 205.984H14.7227V5.89709H359.253V205.984ZM16.0812 204.592H357.861V7.31301H16.0812V204.592Z" fill="white"/>
<path d="M371.011 203.036H0.666504V212.56H371.011V203.036Z" fill="white"/>
<path d="M371.702 213.25H0V202.345H371.702V213.25ZM1.3693 211.858H370.31V203.738H1.3693V211.858Z" fill="white"/>
<path d="M263.589 124.242C263.578 124.144 263.578 124.046 263.589 123.949C263.589 123.738 263.589 123.458 263.589 123.094C263.589 122.334 263.589 121.234 263.589 119.807C263.589 116.928 263.59 112.786 263.522 107.415C263.522 96.7552 263.454 81.5677 263.397 63.349L263.646 63.6064H204.797L205.08 63.3144C205.08 85.6166 205.08 106.503 205.08 124.16L204.842 123.914L247.463 124.043L259.448 124.101H262.628H262.684H259.549H247.61L204.842 124.23H204.604V123.984C204.604 106.28 204.604 85.3711 204.604 63.1392V62.858H204.898H263.748H263.985V63.1035C263.985 81.3806 263.894 96.6266 263.861 107.322C263.861 112.622 263.861 116.799 263.805 119.666C263.805 121.07 263.805 122.147 263.805 122.907C263.805 123.259 263.805 123.528 263.805 123.727C263.755 123.907 263.683 124.081 263.589 124.242Z" fill="white"/>
<path d="M263.59 124.242L264.042 123.914L265.389 123.013L270.606 119.62L289.777 107.275L289.675 107.462C289.675 91.5719 289.675 70.522 289.607 47.4823L289.89 47.7754H289.721L231.675 47.7051H231.776L212.016 59.219L206.607 62.3432L205.193 63.1392C204.864 63.3143 204.695 63.3846 204.695 63.3846L205.158 63.0797L206.539 62.2264L211.892 59.0081L231.573 47.3071L289.619 47.2368H290.072V47.5299C290.072 70.5685 290.072 91.6184 290.004 107.509V107.626L289.913 107.696L270.674 119.877L265.399 123.177L264.007 124.019C263.759 124.16 263.59 124.242 263.59 124.242Z" fill="white"/>
<path d="M289.889 47.482C289.968 47.6226 284.14 51.2854 276.875 55.6727C269.609 60.0611 263.668 63.5011 263.589 63.3605C263.509 63.22 269.326 59.5583 276.592 55.1698C283.857 50.7825 289.81 47.3425 289.889 47.482Z" fill="white"/>
<path d="M207.489 121.737C207.569 121.878 207.003 122.358 206.233 122.825C205.463 123.293 204.773 123.539 204.694 123.399C204.614 123.259 205.18 122.778 205.95 122.322C206.72 121.866 207.41 121.596 207.489 121.737Z" fill="white"/>
<path d="M213.08 118.426C213.148 118.566 212.594 119.046 211.824 119.503C211.054 119.959 210.364 120.216 210.285 120.088C210.205 119.959 210.771 119.455 211.541 118.999C212.311 118.542 213.001 118.285 213.08 118.426Z" fill="white"/>
<path d="M218.66 115.103C218.739 115.243 218.173 115.735 217.404 116.192C216.634 116.647 215.944 116.905 215.876 116.765C215.808 116.624 216.363 116.144 217.132 115.688C217.902 115.231 218.592 114.974 218.66 115.103Z" fill="white"/>
<path d="M224.25 111.791C224.329 111.932 223.763 112.412 222.994 112.868C222.224 113.325 221.534 113.593 221.455 113.453C221.375 113.313 221.941 112.833 222.711 112.364C223.48 111.897 224.171 111.651 224.25 111.791Z" fill="white"/>
<path d="M229.841 108.48C229.92 108.609 229.355 109.101 228.585 109.557C227.815 110.012 227.124 110.271 227.046 110.13C226.966 109.99 227.532 109.509 228.302 109.053C229.072 108.597 229.762 108.339 229.841 108.48Z" fill="white"/>
<path d="M231.256 102.7C231.414 102.7 231.528 103.449 231.528 104.362C231.528 105.274 231.38 106.035 231.233 106.023C231.086 106.011 230.962 105.285 230.962 104.362C230.962 103.437 231.097 102.7 231.256 102.7Z" fill="white"/>
<path d="M231.369 95.972C231.516 95.972 231.64 96.7204 231.629 97.645C231.618 98.5696 231.493 99.3061 231.335 99.3061C231.177 99.3061 231.063 98.5577 231.075 97.645C231.086 96.7323 231.154 95.972 231.369 95.972Z" fill="white"/>
<path d="M231.369 89.3137C231.528 89.3137 231.641 90.0631 231.641 90.9867C231.641 91.9113 231.493 92.6488 231.346 92.6488C231.199 92.6488 231.075 91.8994 231.075 90.9748C231.075 90.0513 231.199 89.3137 231.369 89.3137Z" fill="white"/>
<path d="M231.369 82.6554C231.527 82.6554 231.652 83.4048 231.641 84.3176C231.629 85.2303 231.505 85.9905 231.346 85.9905C231.187 85.9905 231.075 85.2422 231.086 84.3176C231.098 83.3929 231.255 82.6554 231.369 82.6554Z" fill="white"/>
<path d="M231.459 75.9982C231.618 75.9982 231.73 76.7465 231.73 77.6592C231.73 78.5719 231.584 79.3214 231.437 79.3214C231.29 79.3214 231.154 78.5719 231.165 77.6592C231.177 76.7465 231.301 75.9863 231.459 75.9982Z" fill="white"/>
<path d="M231.505 69.328C231.662 69.328 231.787 70.0774 231.776 71.002C231.765 71.9256 231.641 72.6631 231.482 72.6631C231.323 72.6631 231.21 71.9147 231.222 70.9901C231.232 70.0655 231.368 69.328 231.505 69.328Z" fill="white"/>
<path d="M231.561 62.6707C231.72 62.6707 231.833 63.419 231.821 64.3436C231.811 65.2682 231.685 66.0047 231.538 66.0047C231.392 66.0047 231.255 65.2563 231.267 64.3317C231.278 63.4071 231.369 62.6707 231.561 62.6707Z" fill="white"/>
<path d="M231.606 56.0125C231.765 56.0125 231.889 56.7619 231.878 57.6746C231.866 58.5873 231.742 59.3357 231.583 59.3357C231.424 59.3357 231.312 58.5873 231.323 57.6746C231.335 56.7619 231.459 56.0125 231.606 56.0125Z" fill="white"/>
<path d="M231.662 49.3433C231.81 49.3433 231.934 50.0916 231.923 51.0162C231.912 51.9409 231.788 52.6784 231.641 52.6784C231.493 52.6784 231.358 51.929 231.369 51.0162C231.38 50.1035 231.505 49.3433 231.662 49.3433Z" fill="white"/>
<path d="M286.664 107.462C286.664 107.298 287.389 107.169 288.271 107.169C289.154 107.169 289.89 107.298 289.89 107.462C289.89 107.625 289.165 107.742 288.271 107.742C287.378 107.742 286.664 107.614 286.664 107.462Z" fill="white"/>
<path d="M280.225 107.462C280.225 107.298 280.949 107.169 281.832 107.169C282.715 107.169 283.438 107.298 283.438 107.462C283.438 107.625 282.726 107.742 281.832 107.742C280.937 107.742 280.225 107.614 280.225 107.462Z" fill="white"/>
<path d="M273.775 107.462C273.775 107.298 274.499 107.169 275.393 107.169C276.287 107.169 277 107.298 277 107.462C277 107.625 276.276 107.742 275.393 107.742C274.511 107.742 273.775 107.614 273.775 107.462Z" fill="white"/>
<path d="M267.335 107.462C267.335 107.298 268.06 107.169 268.943 107.169C269.825 107.169 270.56 107.298 270.56 107.462C270.56 107.625 269.837 107.742 268.943 107.742C268.049 107.742 267.335 107.614 267.335 107.462Z" fill="white"/>
<path d="M260.895 107.462C260.895 107.298 261.619 107.169 262.503 107.169C263.385 107.169 264.12 107.298 264.12 107.462C264.12 107.625 263.396 107.742 262.503 107.742C261.608 107.742 260.895 107.614 260.895 107.462Z" fill="white"/>
<path d="M254.456 107.462C254.456 107.298 255.169 107.169 256.063 107.169C256.957 107.169 257.67 107.298 257.67 107.462C257.67 107.625 256.946 107.742 256.063 107.742C255.181 107.742 254.456 107.614 254.456 107.462Z" fill="white"/>
<path d="M248.005 107.462C248.005 107.298 248.728 107.169 249.623 107.169C250.517 107.169 251.229 107.298 251.229 107.462C251.229 107.625 250.506 107.742 249.623 107.742C248.74 107.742 248.005 107.614 248.005 107.462Z" fill="white"/>
<path d="M241.555 107.462C241.555 107.298 242.279 107.169 243.162 107.169C244.045 107.169 244.78 107.298 244.78 107.462C244.78 107.625 244.056 107.742 243.162 107.742C242.267 107.742 241.555 107.614 241.555 107.462Z" fill="white"/>
<path d="M235.126 107.462C235.126 107.298 235.84 107.169 236.733 107.169C237.627 107.169 238.341 107.298 238.341 107.462C238.341 107.625 237.627 107.742 236.733 107.742C235.84 107.742 235.126 107.614 235.126 107.462Z" fill="white"/>
<path d="M231.222 107.462C231.224 107.419 231.236 107.378 231.254 107.34C231.272 107.302 231.299 107.268 231.331 107.241C231.362 107.214 231.399 107.193 231.439 107.181C231.479 107.168 231.52 107.165 231.561 107.169C231.602 107.161 231.645 107.162 231.685 107.172C231.726 107.182 231.764 107.203 231.796 107.23C231.829 107.257 231.855 107.291 231.873 107.33C231.891 107.37 231.9 107.413 231.9 107.456C231.9 107.499 231.891 107.542 231.873 107.581C231.855 107.62 231.829 107.655 231.796 107.683C231.764 107.71 231.726 107.729 231.685 107.74C231.645 107.751 231.602 107.751 231.561 107.742C231.521 107.748 231.48 107.745 231.441 107.733C231.402 107.721 231.366 107.702 231.334 107.675C231.303 107.649 231.277 107.617 231.257 107.58C231.238 107.544 231.226 107.503 231.222 107.462Z" fill="white"/>
<path d="M297.008 87.1845C297.499 87.2072 297.992 87.1845 298.479 87.1142C299.12 86.9747 299.724 86.6935 300.25 86.289C300.776 85.8857 301.21 85.3687 301.524 84.774C301.944 83.8645 302.148 82.8642 302.119 81.8563C302.089 80.8484 301.826 79.8632 301.353 78.9818C301.246 78.745 301.089 78.5352 300.893 78.3698C300.697 78.2032 300.468 78.0843 300.222 78.0226C299.957 77.9859 299.687 78.0043 299.428 78.0767C299.17 78.1481 298.928 78.2735 298.716 78.4433C297.832 79.3333 297.188 80.4461 296.849 81.6735C296.377 83.0004 296.095 84.3922 296.012 85.8035H295.469C295.401 81.3924 295.378 77.5425 295.378 74.7924C295.378 73.5055 295.378 72.4522 295.378 71.5633C295.357 71.1718 295.384 70.7782 295.457 70.3932C295.528 70.7793 295.566 71.1707 295.571 71.5633C295.571 72.4176 295.649 73.4936 295.707 74.7816C295.797 77.5306 295.899 81.3805 295.99 85.7916H295.446C295.528 84.3252 295.815 82.8793 296.295 81.4972C296.525 80.8516 296.797 80.2212 297.109 79.6134C297.407 78.9894 297.837 78.4411 298.366 78.0107C298.639 77.7955 298.951 77.6398 299.283 77.5533C299.616 77.4668 299.962 77.4506 300.302 77.5079C300.621 77.5879 300.921 77.7382 301.18 77.9513C301.438 78.1632 301.648 78.4314 301.795 78.7364C302.297 79.6956 302.566 80.7662 302.578 81.8574C302.59 82.9485 302.345 84.0256 301.863 84.9957C301.51 85.6369 301.021 86.1874 300.433 86.6048C299.845 87.0223 299.173 87.2959 298.468 87.4062C298.092 87.4635 297.711 87.4635 297.336 87.4062C297.215 87.3532 297.104 87.2775 297.008 87.1845Z" fill="white"/>
<path d="M268.467 40.532C268.467 40.532 268.467 40.6261 268.332 40.7429C268.172 40.9321 267.975 41.0835 267.754 41.1873C267.404 41.3701 267.014 41.4588 266.622 41.4447C266.086 41.4177 265.577 41.1938 265.185 40.8131C264.742 40.3298 264.41 39.7501 264.212 39.1164C263.949 38.4156 263.722 37.7008 263.533 36.9752C263.067 35.2654 262.791 33.5071 262.707 31.7335H263.239C263.566 34.0402 263.502 36.388 263.046 38.6719C262.75 40.0497 262.017 41.2846 260.964 42.1822C260.681 42.3877 260.361 42.5337 260.023 42.6094C259.684 42.6862 259.335 42.6916 258.995 42.6267C258.674 42.551 258.372 42.4082 258.108 42.2071C257.843 42.006 257.622 41.7507 257.455 41.4566C257.06 40.6358 256.828 39.7404 256.775 38.8244C256.721 37.9074 256.846 36.9903 257.143 36.1252C257.44 35.26 257.902 34.4663 258.502 33.7904C259.102 33.1134 259.828 32.5695 260.636 32.1899C260.981 32.0277 261.342 31.9022 261.711 31.8157C261.971 31.8157 262.107 31.7454 262.107 31.8157C262.107 31.8849 261.587 31.979 260.738 32.4354C259.541 33.0983 258.562 34.117 257.932 35.3606C257.515 36.2117 257.279 37.146 257.24 38.0988C257.163 39.1834 257.39 40.2692 257.897 41.223C258.024 41.4566 258.196 41.6621 258.402 41.8254C258.609 41.9876 258.845 42.1054 259.097 42.1703C259.641 42.2623 260.198 42.1271 260.647 41.7962C261.592 40.9602 262.245 39.8247 262.503 38.567C262.939 36.348 263.011 34.0705 262.719 31.8265H263.239C263.299 33.5654 263.542 35.2914 263.963 36.9752C264.144 37.7354 264.359 38.4492 264.574 39.0937C264.739 39.6831 265.024 40.2303 265.412 40.6964C265.707 40.9894 266.077 41.1884 266.479 41.2673C266.882 41.3463 267.297 41.302 267.675 41.1408C267.964 40.9754 268.23 40.7699 268.467 40.532Z" fill="white"/>
<path d="M107.161 59.4642C107.174 59.5735 107.174 59.6827 107.161 59.7919C107.161 60.0255 107.161 60.3423 107.263 60.7284C107.331 61.5935 107.434 62.7993 107.569 64.3436C107.795 67.4916 108.157 72.0434 108.169 77.6949C108.284 84.3208 107.554 90.9347 105.996 97.3638C105.046 101.163 103.664 104.831 101.876 108.293C99.9219 111.993 97.4511 115.376 94.5429 118.332C91.6121 121.409 88.5668 124.183 86.0205 127.26C83.5745 130.2 81.5994 133.527 80.1697 137.113C77.8393 143.244 76.5607 149.75 76.3901 156.337C76.1633 161.965 76.39 166.528 76.5369 169.665C76.6049 171.209 76.6611 172.425 76.6956 173.292C76.6956 173.69 76.6956 173.993 76.6956 174.239C76.7064 174.348 76.7064 174.458 76.6956 174.567C76.6838 174.458 76.6838 174.348 76.6956 174.239C76.6956 174.005 76.6957 173.69 76.6158 173.304C76.5488 172.437 76.4581 171.221 76.3447 169.676C76.0229 165.234 75.9214 160.778 76.0391 156.325C76.1449 149.681 77.39 143.108 79.7172 136.914C81.1513 133.271 83.1469 129.892 85.6252 126.909C88.1943 123.796 91.2838 120.999 94.1585 117.945C97.031 115.023 99.4791 111.685 101.424 108.035C103.187 104.61 104.562 100.987 105.52 97.2351C107.083 90.8493 107.844 84.2818 107.783 77.6949C107.783 72.0542 107.512 67.5024 107.343 64.3555C107.267 62.795 107.199 61.5903 107.139 60.7392C107.139 60.3424 107.139 60.0374 107.139 59.7919C107.134 59.6827 107.142 59.5724 107.161 59.4642Z" fill="white"/>
<path d="M95.6631 77.589C95.1534 76.6882 94.7246 75.7409 94.3845 74.7579C93.6599 72.967 92.6869 70.4981 91.6459 67.7372L91.4764 67.3047H91.9623C90.8533 69.4059 89.9905 71.6368 89.3933 73.95C88.9409 75.729 88.7832 76.8526 88.7033 76.8407C88.6687 75.8382 88.7832 74.8357 89.0434 73.8689C89.5391 71.48 90.3663 69.1788 91.4991 67.0354L91.7701 66.5206L91.9742 67.07L92.1438 67.5026C93.1848 70.2407 94.1016 72.7453 94.7354 74.5232C95.1296 75.5159 95.4406 76.5411 95.6631 77.589Z" fill="white"/>
<path d="M90.4361 178.23C90.2882 178.23 90.583 153.376 91.1035 122.72C91.624 92.0638 92.1672 67.1986 92.3141 67.1986C92.4609 67.1986 92.1672 92.0638 91.6467 122.72C91.1262 153.376 90.583 178.241 90.4361 178.23Z" fill="white"/>
<path d="M113.285 120.766C113.285 120.919 104.888 121.047 94.521 121.047C84.1541 121.047 75.7461 120.919 75.7461 120.766C75.7461 120.614 84.1433 120.497 94.521 120.497C104.899 120.497 113.285 120.614 113.285 120.766Z" fill="white"/>
<path d="M109.143 125.036C110.038 124.488 110.972 124.014 111.939 123.621C113.704 122.814 116.149 121.713 118.876 120.532V121.059L118.559 120.953C115.684 119.958 113.082 119.034 111.215 118.343C110.183 118.016 109.18 117.6 108.216 117.103C109.273 117.306 110.314 117.596 111.328 117.969C113.229 118.566 115.855 119.432 118.73 120.426L119.046 120.532L119.725 120.766L119.069 121.047C116.33 122.217 113.863 123.259 112.063 123.984C111.121 124.419 110.143 124.771 109.143 125.036Z" fill="white"/>
<path d="M113.387 113.078C113.387 113.078 113.331 113.242 113.137 113.464L112.527 114.202L112.98 113.325C113.707 112.003 114.499 110.722 115.357 109.487C116.211 108.059 117.209 106.73 118.333 105.52C117.647 107.042 116.796 108.478 115.797 109.802C114.666 111.464 113.659 112.868 113.16 113.453L112.991 113.301C113.228 113.126 113.364 113.055 113.387 113.078Z" fill="white"/>
<path d="M119.826 112.342C118.58 111.393 117.441 110.301 116.431 109.089C115.3 108.002 114.294 106.785 113.432 105.462C114.683 106.403 115.823 107.496 116.827 108.713C117.957 109.801 118.962 111.019 119.826 112.342Z" fill="white"/>
<path d="M85.6705 110.82C85.6705 110.82 85.9318 110.586 86.475 110.715C86.8508 110.818 87.1888 111.032 87.448 111.332C87.7082 111.631 87.8767 112.002 87.9339 112.4C88.0505 113.541 87.854 114.692 87.3681 115.723C87.1197 116.372 86.7104 116.941 86.1802 117.372C85.8865 117.62 85.542 117.793 85.1726 117.881C84.8044 117.968 84.4211 117.966 84.0528 117.876C83.6932 117.756 83.3628 117.556 83.0874 117.289C82.8109 117.022 82.5961 116.694 82.4568 116.331C82.2192 115.673 82.1598 114.962 82.2872 114.272C82.4535 113.121 82.9967 112.064 83.8261 111.276C84.1176 111.023 84.4589 110.839 84.8271 110.736C85.1943 110.633 85.5787 110.613 85.9534 110.679C86.2331 110.711 86.4912 110.848 86.678 111.066C86.678 111.066 86.407 110.949 85.9308 110.902C85.5928 110.875 85.2537 110.922 84.934 111.038C84.6144 111.155 84.3217 111.34 84.0755 111.58C83.3531 112.347 82.8952 113.338 82.7743 114.401C82.6781 114.994 82.7364 115.604 82.9438 116.168C83.0582 116.443 83.2289 116.69 83.4438 116.891C83.6587 117.093 83.9124 117.246 84.1889 117.338C84.4783 117.407 84.7806 117.408 85.0701 117.339C85.3605 117.27 85.6316 117.133 85.8638 116.94C86.3249 116.563 86.6867 116.073 86.9156 115.512C87.381 114.573 87.6035 113.525 87.5614 112.47C87.5236 112.13 87.3994 111.806 87.2007 111.533C87.0009 111.259 86.7352 111.045 86.4296 110.914C85.9653 110.75 85.6824 110.89 85.6705 110.82Z" fill="white"/>
<path d="M80.4766 74.7342C80.3524 74.8283 79.5716 73.9156 78.7228 72.7098C78.1386 72.0263 77.6883 71.2315 77.3989 70.3696C77.5231 70.2885 78.3039 71.1893 79.1526 72.4059C79.7358 73.0861 80.185 73.8766 80.4766 74.7342Z" fill="white"/>
<path d="M78.2354 80.3975C78.6533 78.4412 79.2483 76.5292 80.0128 74.6876C80.6025 72.7756 81.3595 70.9231 82.2763 69.1528C81.8541 71.1135 81.2547 73.0297 80.488 74.8746C79.8995 76.7823 79.1457 78.6304 78.2354 80.3975Z" fill="white"/>
<path d="M138.624 35.6764C138.624 35.8753 117.224 36.0397 90.8206 36.0397C64.4173 36.0397 43.0161 35.8753 43.0161 35.6764C43.0161 35.4774 64.4173 35.3141 90.8206 35.3141C117.224 35.3141 138.624 35.4774 138.624 35.6764Z" fill="white"/>
<path d="M138.624 41.4326C138.624 41.6316 117.224 41.7959 90.8206 41.7959C64.4173 41.7959 43.0161 41.6316 43.0161 41.4326C43.0161 41.2347 64.4173 41.0703 90.8206 41.0703C117.224 41.0703 138.624 41.2347 138.624 41.4326Z" fill="white"/>
<path d="M74.8523 25.473C74.8523 25.672 67.7218 25.8353 58.9283 25.8353C50.1348 25.8353 43.0161 25.672 43.0161 25.473C43.0161 25.274 50.1348 25.1107 58.9283 25.1107C67.7218 25.1107 74.8523 25.2502 74.8523 25.473Z" fill="white"/>
<path d="M303.346 143.77C303.346 143.969 290.784 146.297 275.222 148.977C259.661 151.657 247.02 153.658 246.985 153.471C246.952 153.283 259.548 150.943 275.109 148.263C290.67 145.584 303.311 143.571 303.346 143.77Z" fill="white"/>
<path d="M306.154 150.674C306.154 150.873 293.591 153.201 278.03 155.881C262.469 158.561 249.828 160.561 249.737 160.374C249.646 160.187 262.299 157.847 277.86 155.167C293.422 152.487 306.119 150.463 306.154 150.674Z" fill="white"/>
<path d="M308.96 157.554C308.96 157.753 296.398 160.081 280.837 162.761C265.275 165.441 252.634 167.441 252.6 167.254C252.566 167.067 265.162 164.727 280.723 162.047C296.284 159.367 308.926 157.355 308.96 157.554Z" fill="white"/>
<path d="M119.431 153.658V202.323H200.349L119.431 153.658ZM131.88 173.245L165.515 193.839H131.846L131.88 173.245Z" fill="#2E8256"/>
<path d="M127.25 158.326C126.927 159.398 126.434 160.407 125.79 161.31C125.298 162.307 124.642 163.21 123.855 163.978C124.178 162.906 124.671 161.898 125.315 160.994C125.803 159.995 126.459 159.092 127.25 158.326Z" fill="white"/>
<path d="M139.201 165.464C138.898 166.513 138.411 167.498 137.764 168.366C137.277 169.337 136.63 170.212 135.852 170.952C136.159 169.904 136.646 168.921 137.289 168.05C137.78 167.082 138.427 166.208 139.201 165.464Z" fill="white"/>
<path d="M151.209 172.614C150.215 174.535 148.896 176.259 147.316 177.703C147.738 176.698 148.324 175.776 149.049 174.977C150.123 173.573 151.085 172.508 151.209 172.614Z" fill="white"/>
<path d="M163.001 180.031C162.014 181.959 160.694 183.684 159.108 185.122C159.524 184.114 160.11 183.19 160.84 182.395C161.915 180.992 162.877 179.926 163.001 180.031Z" fill="white"/>
<path d="M175.326 187.321C174.964 188.38 174.427 189.365 173.741 190.234C173.201 191.209 172.509 192.083 171.693 192.821C172.048 191.759 172.585 190.772 173.277 189.908C173.813 188.931 174.505 188.056 175.326 187.321Z" fill="white"/>
<path d="M188.126 195.009C187.825 196.016 187.345 196.957 186.712 197.782C186.23 198.71 185.59 199.538 184.822 200.228C185.123 199.22 185.603 198.28 186.236 197.454C186.717 196.527 187.357 195.699 188.126 195.009Z" fill="white"/>
<path d="M130.941 160.585C131.076 160.666 130.805 161.369 130.34 162.141C129.876 162.913 129.39 163.474 129.208 163.392C129.027 163.311 129.355 162.609 129.82 161.836C130.284 161.064 130.815 160.491 130.941 160.585Z" fill="white"/>
<path d="M134.878 162.843C135.013 162.936 134.742 163.627 134.278 164.411C133.813 165.195 133.327 165.745 133.146 165.662C132.965 165.581 133.282 164.878 133.757 164.106C134.232 163.334 134.753 162.761 134.878 162.843Z" fill="white"/>
<path d="M143.639 168.225C143.763 168.308 143.492 169.009 143.027 169.782C142.563 170.554 142.077 171.127 141.952 171.034C141.828 170.94 142.088 170.262 142.552 169.478C143.017 168.694 143.502 168.085 143.639 168.225Z" fill="white"/>
<path d="M147.622 170.437C147.758 170.519 147.486 171.221 147.023 171.993C146.558 172.765 146.071 173.338 145.891 173.245C145.71 173.151 146.038 172.461 146.502 171.689C146.966 170.917 147.441 170.354 147.622 170.437Z" fill="white"/>
<path d="M155.476 175.503C155.612 175.597 155.34 176.287 154.876 177.071C154.412 177.855 153.925 178.405 153.745 178.324C153.563 178.242 153.891 177.54 154.356 176.756C154.819 175.972 155.352 175.421 155.476 175.503Z" fill="white"/>
<path d="M159.234 177.773C159.369 177.867 159.098 178.557 158.634 179.341C158.169 180.125 157.683 180.674 157.502 180.593C157.321 180.511 157.638 179.809 158.113 179.025C158.588 178.241 159.109 177.691 159.234 177.773Z" fill="white"/>
<path d="M167.336 182.618C167.472 182.699 167.2 183.402 166.737 184.174C166.272 184.946 165.785 185.508 165.605 185.425C165.424 185.344 165.74 184.641 166.204 183.869C166.669 183.097 167.2 182.524 167.336 182.618Z" fill="white"/>
<path d="M171.693 185.262C171.817 185.355 171.546 186.046 171.082 186.83C170.618 187.614 170.132 188.163 169.95 188.082C169.769 188 170.097 187.298 170.561 186.514C171.026 185.73 171.557 185.18 171.693 185.262Z" fill="white"/>
<path d="M179.514 190.001C179.649 190.083 179.378 190.785 178.914 191.557C178.449 192.329 177.963 192.902 177.782 192.809C177.602 192.715 177.918 192.025 178.382 191.253C178.846 190.481 179.378 189.919 179.514 190.001Z" fill="white"/>
<path d="M184.029 192.681C184.165 192.763 183.893 193.465 183.43 194.237C182.965 195.009 182.478 195.57 182.298 195.489C182.117 195.407 182.433 194.705 182.909 193.933C183.384 193.161 183.905 192.598 184.029 192.681Z" fill="white"/>
</svg>
