<svg width="20" height="18" viewBox="0 0 20 18" fill="none" xmlns="http://www.w3.org/2000/svg">
<path d="M12.879 7.16799C14.436 8.72499 14.436 11.249 12.879 12.806C11.322 14.363 8.79799 14.363 7.24099 12.806C5.68399 11.249 5.68399 8.72499 7.24099 7.16799C8.79799 5.61099 11.322 5.61099 12.879 7.16799Z" stroke="white" stroke-width="1.5" stroke-linecap="round" stroke-linejoin="round"/>
<path d="M19 6V15C19 16.105 18.105 17 17 17H3C1.895 17 1 16.105 1 15V6C1 4.895 1.895 4 3 4H5L6.46198 1.496C6.64098 1.189 6.96999 1 7.32599 1H12.63C12.981 1 13.306 1.18401 13.487 1.48401L15 4H17C18.105 4 19 4.895 19 6Z" stroke="white" stroke-width="1.5" stroke-linecap="round" stroke-linejoin="round"/>
</svg>
