<svg width="24" height="19" viewBox="0 0 24 19" fill="none" xmlns="http://www.w3.org/2000/svg">
<path d="M14.5906 6.92569C16.0206 8.34762 16.0206 10.656 14.5906 12.0803C13.1606 13.5023 10.8384 13.5023 9.40844 12.0803C7.97844 10.6584 7.97844 8.35005 9.40844 6.92569C10.8384 5.50133 13.1606 5.50133 14.5906 6.92569Z" stroke="#D3D3D3" stroke-width="1.5" stroke-linecap="round" stroke-linejoin="round"/>
<path d="M1 9.5C1 8.69979 1.18327 7.90809 1.54994 7.1783C3.3955 3.41766 7.49 1 12 1C16.51 1 20.6045 3.41766 22.4501 7.1783C22.8167 7.90809 23 8.69979 23 9.5C23 10.3002 22.8167 11.0919 22.4501 11.8217C20.6045 15.5823 16.51 18 12 18C7.49 18 3.3955 15.5823 1.54994 11.8217C1.18327 11.0919 1 10.3002 1 9.5Z" stroke="#D3D3D3" stroke-width="1.5" stroke-linecap="round" stroke-linejoin="round"/>
</svg>
