<svg width="228" height="257" viewBox="0 0 228 257" fill="none" xmlns="http://www.w3.org/2000/svg">
<circle cx="114.185" cy="127.599" r="18.2865" fill="#24282D"/>
<circle cx="209.276" cy="71.1146" r="18.2865" fill="#24282D"/>
<circle cx="209.276" cy="183.271" r="18.2865" fill="#24282D"/>
<circle cx="19.099" cy="182.865" r="18.2865" fill="#24282D"/>
<circle cx="114.391" cy="238.131" r="18.2865" fill="#24282D"/>
<circle cx="18.2865" cy="73.1459" r="18.2865" fill="#24282D"/>
<circle cx="114.185" cy="18.2865" r="18.2865" fill="#24282D"/>
<rect x="111.184" y="144.259" width="6.29868" height="81.2733" fill="#24282D"/>
<path d="M34.5416 186.929L101.592 225.534L97.5284 233.661L32.5098 195.056L34.5416 186.929Z" fill="#24282D"/>
<path d="M34.5437 77.2104L105.658 117.847L101.594 125.974L28.4482 83.3059L34.5437 77.2104Z" fill="#24282D"/>
<path d="M125.974 227.565L193.024 188.96L197.088 195.055L130.037 233.66L125.974 227.565Z" fill="#24282D"/>
<path d="M125.974 115.326L193.024 76.7212L197.088 82.8167L130.037 121.422L125.974 115.326Z" fill="#24282D"/>
<path d="M30.4814 62.9867L99.5637 22.3501L103.627 28.4456L34.5451 69.0822L30.4814 62.9867Z" fill="#24282D"/>
</svg>
