<svg width="826" height="367" viewBox="0 0 826 367" fill="none" xmlns="http://www.w3.org/2000/svg">
<path d="M313.4 58.217C313.4 63.859 308.84 68.434 303.2 68.434C297.57 68.434 293 63.859 293 58.217C293 52.574 297.57 48 303.2 48C308.82 48 313.4 52.574 313.4 58.217Z" stroke="#2E8256" stroke-width="3" stroke-miterlimit="10" stroke-linecap="round" stroke-linejoin="round"/>
<path d="M310.58 65.2646L317.78 72.4906" stroke="#2E8256" stroke-width="3" stroke-miterlimit="10" stroke-linecap="round" stroke-linejoin="round"/>
<path d="M812.93 339.295L823.665 350.044" stroke="#2E8256" stroke-width="3" stroke-miterlimit="10" stroke-linecap="round" stroke-linejoin="round"/>
<path d="M823.665 339.295L812.93 350.044" stroke="#2E8256" stroke-width="3" stroke-miterlimit="10" stroke-linecap="round" stroke-linejoin="round"/>
<path d="M762.37 119.341C762.37 121.187 763.868 122.683 765.716 122.683C767.564 122.683 769.062 121.187 769.062 119.341C769.062 117.496 767.564 116 765.716 116C763.868 116 762.37 117.496 762.37 119.341Z" fill="#505B63"/>
<path d="M762.37 142.662C762.37 144.507 763.868 146.003 765.716 146.003C767.564 146.003 769.062 144.507 769.062 142.662C769.062 140.817 767.564 139.321 765.716 139.321C763.868 139.321 762.37 140.817 762.37 142.662Z" fill="#505B63"/>
<path d="M762.37 166.001C762.37 167.846 763.868 169.342 765.716 169.342C767.564 169.342 769.062 167.846 769.062 166.001C769.062 164.155 767.564 162.659 765.716 162.659C763.868 162.659 762.37 164.155 762.37 166.001Z" fill="#505B63"/>
<path d="M739 119.341C739 121.186 740.498 122.682 742.346 122.682C744.193 122.682 745.691 121.186 745.691 119.341C745.691 117.496 744.193 116 742.346 116C740.498 116 739 117.496 739 119.341Z" fill="#505B63"/>
<path d="M739 142.662C739 144.507 740.498 146.003 742.345 146.003C744.193 146.003 745.691 144.507 745.691 142.662C745.691 140.817 744.193 139.321 742.345 139.321C740.498 139.321 739 140.817 739 142.662Z" fill="#505B63"/>
<path d="M739 166.001C739 167.846 740.498 169.342 742.345 169.342C744.193 169.342 745.691 167.846 745.691 166.001C745.691 164.155 744.193 162.659 742.345 162.659C740.498 162.659 739 164.155 739 166.001Z" fill="#505B63"/>
<path d="M73.3401 39.691C75.1801 39.691 76.6801 38.194 76.6801 36.346C76.6801 34.498 75.1801 33 73.3401 33C71.4901 33 70 34.498 70 36.346C70 38.194 71.4901 39.691 73.3401 39.691Z" fill="#505B63"/>
<path d="M73.3401 63.0621C75.1801 63.0621 76.6801 61.5641 76.6801 59.7161C76.6801 57.8691 75.1801 56.3711 73.3401 56.3711C71.4901 56.3711 70 57.8691 70 59.7161C70 61.5641 71.4901 63.0621 73.3401 63.0621Z" fill="#505B63"/>
<path d="M73.3401 86.4147C75.1801 86.4147 76.6801 84.9167 76.6801 83.0687C76.6801 81.2207 75.1801 79.7227 73.3401 79.7227C71.4901 79.7227 70 81.2207 70 83.0687C70 84.9167 71.4901 86.4147 73.3401 86.4147Z" fill="#505B63"/>
<path d="M73.3401 109.786C75.1801 109.786 76.6801 108.288 76.6801 106.44C76.6801 104.592 75.1801 103.094 73.3401 103.094C71.4901 103.094 70 104.592 70 106.44C70 108.288 71.4901 109.786 73.3401 109.786Z" fill="#505B63"/>
<path d="M73.3401 133.138C75.1801 133.138 76.6801 131.64 76.6801 129.793C76.6801 127.945 75.1801 126.447 73.3401 126.447C71.4901 126.447 70 127.945 70 129.793C70 131.64 71.4901 133.138 73.3401 133.138Z" fill="#505B63"/>
<path d="M73.3401 156.509C75.1801 156.509 76.6801 155.011 76.6801 153.163C76.6801 151.315 75.1801 149.817 73.3401 149.817C71.4901 149.817 70 151.315 70 153.163C70 155.011 71.4901 156.509 73.3401 156.509Z" fill="#505B63"/>
<path d="M73.3401 179.862C75.1801 179.862 76.6801 178.364 76.6801 176.516C76.6801 174.668 75.1801 173.17 73.3401 173.17C71.4901 173.17 70 174.668 70 176.516C70 178.364 71.4901 179.862 73.3401 179.862Z" fill="#505B63"/>
<path d="M50.0001 39.691C51.8501 39.691 53.3402 38.194 53.3402 36.346C53.3402 34.498 51.8501 33 50.0001 33C48.1601 33 46.6602 34.498 46.6602 36.346C46.6602 38.194 48.1601 39.691 50.0001 39.691Z" fill="#505B63"/>
<path d="M50.0001 63.0621C51.8501 63.0621 53.3402 61.5641 53.3402 59.7161C53.3402 57.8691 51.8501 56.3711 50.0001 56.3711C48.1601 56.3711 46.6602 57.8691 46.6602 59.7161C46.6602 61.5641 48.1601 63.0621 50.0001 63.0621Z" fill="#505B63"/>
<path d="M50.0001 86.4147C51.8501 86.4147 53.3402 84.9167 53.3402 83.0687C53.3402 81.2207 51.8501 79.7227 50.0001 79.7227C48.1601 79.7227 46.6602 81.2207 46.6602 83.0687C46.6602 84.9167 48.1601 86.4147 50.0001 86.4147Z" fill="#505B63"/>
<path d="M50.0001 109.786C51.8501 109.786 53.3402 108.288 53.3402 106.44C53.3402 104.592 51.8501 103.094 50.0001 103.094C48.1601 103.094 46.6602 104.592 46.6602 106.44C46.6602 108.288 48.1601 109.786 50.0001 109.786Z" fill="#505B63"/>
<path d="M50.0001 133.138C51.8501 133.138 53.3402 131.64 53.3402 129.793C53.3402 127.945 51.8501 126.447 50.0001 126.447C48.1601 126.447 46.6602 127.945 46.6602 129.793C46.6602 131.64 48.1601 133.138 50.0001 133.138Z" fill="#505B63"/>
<path d="M50.0001 156.509C51.8501 156.509 53.3402 155.011 53.3402 153.163C53.3402 151.315 51.8501 149.817 50.0001 149.817C48.1601 149.817 46.6602 151.315 46.6602 153.163C46.6602 155.011 48.1601 156.509 50.0001 156.509Z" fill="#505B63"/>
<path d="M50.0001 179.862C51.8501 179.862 53.3402 178.364 53.3402 176.516C53.3402 174.668 51.8501 173.17 50.0001 173.17C48.1601 173.17 46.6602 174.668 46.6602 176.516C46.6602 178.364 48.1601 179.862 50.0001 179.862Z" fill="#505B63"/>
<path d="M26.6798 39.691C28.5198 39.691 30.0198 38.194 30.0198 36.346C30.0198 34.498 28.5198 33 26.6798 33C24.8298 33 23.3398 34.498 23.3398 36.346C23.3398 38.194 24.8298 39.691 26.6798 39.691Z" fill="#505B63"/>
<path d="M26.6798 63.0621C28.5198 63.0621 30.0198 61.5641 30.0198 59.7161C30.0198 57.8691 28.5198 56.3711 26.6798 56.3711C24.8298 56.3711 23.3398 57.8691 23.3398 59.7161C23.3398 61.5641 24.8298 63.0621 26.6798 63.0621Z" fill="#505B63"/>
<path d="M26.6798 86.4147C28.5198 86.4147 30.0198 84.9167 30.0198 83.0687C30.0198 81.2207 28.5198 79.7227 26.6798 79.7227C24.8298 79.7227 23.3398 81.2207 23.3398 83.0687C23.3398 84.9167 24.8298 86.4147 26.6798 86.4147Z" fill="#505B63"/>
<path d="M26.6798 109.786C28.5198 109.786 30.0198 108.288 30.0198 106.44C30.0198 104.592 28.5198 103.094 26.6798 103.094C24.8298 103.094 23.3398 104.592 23.3398 106.44C23.3398 108.288 24.8298 109.786 26.6798 109.786Z" fill="#505B63"/>
<path d="M26.6798 133.138C28.5198 133.138 30.0198 131.64 30.0198 129.793C30.0198 127.945 28.5198 126.447 26.6798 126.447C24.8298 126.447 23.3398 127.945 23.3398 129.793C23.3398 131.64 24.8298 133.138 26.6798 133.138Z" fill="#505B63"/>
<path d="M26.6798 156.509C28.5198 156.509 30.0198 155.011 30.0198 153.163C30.0198 151.315 28.5198 149.817 26.6798 149.817C24.8298 149.817 23.3398 151.315 23.3398 153.163C23.3398 155.011 24.8298 156.509 26.6798 156.509Z" fill="#505B63"/>
<path d="M26.6798 179.862C28.5198 179.862 30.0198 178.364 30.0198 176.516C30.0198 174.668 28.5198 173.17 26.6798 173.17C24.8298 173.17 23.3398 174.668 23.3398 176.516C23.3398 178.364 24.8298 179.862 26.6798 179.862Z" fill="#505B63"/>
<path d="M3.34009 39.691C5.19009 39.691 6.68005 38.194 6.68005 36.346C6.68005 34.498 5.19009 33 3.34009 33C1.50009 33 0 34.498 0 36.346C0 38.194 1.50009 39.691 3.34009 39.691Z" fill="#505B63"/>
<path d="M3.34009 63.0621C5.19009 63.0621 6.68005 61.5641 6.68005 59.7161C6.68005 57.8691 5.19009 56.3711 3.34009 56.3711C1.49009 56.3711 0 57.8691 0 59.7161C0 61.5641 1.49009 63.0621 3.34009 63.0621Z" fill="#505B63"/>
<path d="M3.34009 86.4151C5.19009 86.4151 6.68005 84.9171 6.68005 83.0691C6.68005 81.2211 5.19009 79.7241 3.34009 79.7241C1.49009 79.7241 0 81.2211 0 83.0691C0 84.9171 1.49009 86.4151 3.34009 86.4151Z" fill="#505B63"/>
<path d="M3.34009 109.786C5.19009 109.786 6.68005 108.288 6.68005 106.44C6.68005 104.592 5.19009 103.094 3.34009 103.094C1.49009 103.094 0 104.592 0 106.44C0 108.288 1.49009 109.786 3.34009 109.786Z" fill="#505B63"/>
<path d="M3.34009 133.138C5.19009 133.138 6.68005 131.64 6.68005 129.793C6.68005 127.945 5.19009 126.447 3.34009 126.447C1.49009 126.447 0 127.945 0 129.793C0 131.64 1.49009 133.138 3.34009 133.138Z" fill="#505B63"/>
<path d="M3.34009 156.509C5.19009 156.509 6.68005 155.011 6.68005 153.163C6.68005 151.315 5.19009 149.817 3.34009 149.817C1.49009 149.817 0 151.315 0 153.163C0 155.011 1.49009 156.509 3.34009 156.509Z" fill="#505B63"/>
<path d="M3.34009 179.862C5.19009 179.862 6.68005 178.364 6.68005 176.516C6.68005 174.668 5.19009 173.17 3.34009 173.17C1.49009 173.17 0 174.668 0 176.516C0 178.364 1.49009 179.862 3.34009 179.862Z" fill="#505B63"/>
<path d="M59 231L69.735 241.749" stroke="#2E8256" stroke-width="3" stroke-miterlimit="10" stroke-linecap="round" stroke-linejoin="round"/>
<path d="M69.735 231L59 241.749" stroke="#2E8256" stroke-width="3" stroke-miterlimit="10" stroke-linecap="round" stroke-linejoin="round"/>
<path d="M487.589 284V299.2" stroke="#2E8256" stroke-width="3" stroke-miterlimit="10" stroke-linecap="round" stroke-linejoin="round"/>
<path d="M495.198 291.599H480" stroke="#2E8256" stroke-width="3" stroke-miterlimit="10" stroke-linecap="round" stroke-linejoin="round"/>
<path d="M53.451 300.238C53.451 305.328 49.3268 309.476 44.2253 309.476C39.1416 309.476 35 305.346 35 300.238C35 295.147 39.1239 291 44.2253 291C49.3268 291.018 53.451 295.147 53.451 300.238Z" stroke="#2E8256" stroke-width="3" stroke-miterlimit="10" stroke-linecap="round" stroke-linejoin="round"/>
<path d="M203.341 268.691C205.186 268.691 206.682 267.194 206.682 265.346C206.682 263.498 205.186 262 203.341 262C201.496 262 200 263.498 200 265.346C200 267.194 201.496 268.691 203.341 268.691Z" fill="#505B63"/>
<path d="M226.662 268.691C228.508 268.691 230.003 267.194 230.003 265.346C230.003 263.498 228.508 262 226.662 262C224.817 262 223.321 263.498 223.321 265.346C223.321 267.194 224.817 268.691 226.662 268.691Z" fill="#505B63"/>
<path d="M250.001 268.691C251.847 268.691 253.342 267.194 253.342 265.346C253.342 263.498 251.847 262 250.001 262C248.156 262 246.66 263.498 246.66 265.346C246.66 267.194 248.156 268.691 250.001 268.691Z" fill="#505B63"/>
<path d="M273.322 268.691C275.167 268.691 276.663 267.194 276.663 265.346C276.663 263.498 275.167 262 273.322 262C271.476 262 269.98 263.498 269.98 265.346C269.98 267.194 271.476 268.691 273.322 268.691Z" fill="#505B63"/>
<path d="M296.66 268.691C298.506 268.691 300.001 267.194 300.001 265.346C300.001 263.498 298.506 262 296.66 262C294.815 262 293.319 263.498 293.319 265.346C293.319 267.194 294.815 268.691 296.66 268.691Z" fill="#505B63"/>
<path d="M203.341 292.044C205.186 292.044 206.682 290.546 206.682 288.699C206.682 286.851 205.186 285.353 203.341 285.353C201.496 285.353 200 286.851 200 288.699C200 290.546 201.496 292.044 203.341 292.044Z" fill="#505B63"/>
<path d="M226.662 292.044C228.508 292.044 230.003 290.546 230.003 288.699C230.003 286.851 228.508 285.353 226.662 285.353C224.817 285.353 223.321 286.851 223.321 288.699C223.321 290.546 224.817 292.044 226.662 292.044Z" fill="#505B63"/>
<path d="M250.001 292.044C251.847 292.044 253.342 290.546 253.342 288.699C253.342 286.851 251.847 285.353 250.001 285.353C248.156 285.353 246.66 286.851 246.66 288.699C246.66 290.546 248.156 292.044 250.001 292.044Z" fill="#505B63"/>
<path d="M273.322 292.044C275.167 292.044 276.663 290.546 276.663 288.699C276.663 286.851 275.167 285.353 273.322 285.353C271.476 285.353 269.98 286.851 269.98 288.699C269.98 290.546 271.476 292.044 273.322 292.044Z" fill="#505B63"/>
<path d="M296.66 292.044C298.506 292.044 300.001 290.546 300.001 288.699C300.001 286.851 298.506 285.353 296.66 285.353C294.815 285.353 293.319 286.851 293.319 288.699C293.319 290.546 294.815 292.044 296.66 292.044Z" fill="#505B63"/>
<path d="M203.341 315.415C205.186 315.415 206.682 313.917 206.682 312.069C206.682 310.221 205.186 308.724 203.341 308.724C201.496 308.724 200 310.221 200 312.069C200 313.917 201.496 315.415 203.341 315.415Z" fill="#505B63"/>
<path d="M226.662 315.415C228.508 315.415 230.003 313.917 230.003 312.069C230.003 310.221 228.508 308.724 226.662 308.724C224.817 308.724 223.321 310.221 223.321 312.069C223.321 313.917 224.817 315.415 226.662 315.415Z" fill="#505B63"/>
<path d="M250.001 315.415C251.847 315.415 253.342 313.917 253.342 312.069C253.342 310.221 251.847 308.724 250.001 308.724C248.156 308.724 246.66 310.221 246.66 312.069C246.66 313.917 248.156 315.415 250.001 315.415Z" fill="#505B63"/>
<path d="M273.322 315.415C275.167 315.415 276.663 313.917 276.663 312.069C276.663 310.221 275.167 308.724 273.322 308.724C271.476 308.724 269.98 310.221 269.98 312.069C269.98 313.917 271.476 315.415 273.322 315.415Z" fill="#505B63"/>
<path d="M296.66 315.415C298.506 315.415 300.001 313.917 300.001 312.069C300.001 310.221 298.506 308.724 296.66 308.724C294.815 308.724 293.319 310.221 293.319 312.069C293.319 313.917 294.815 315.415 296.66 315.415Z" fill="#505B63"/>
<path d="M203.341 338.768C205.186 338.768 206.682 337.27 206.682 335.422C206.682 333.574 205.186 332.076 203.341 332.076C201.496 332.076 200 333.574 200 335.422C200 337.27 201.496 338.768 203.341 338.768Z" fill="#505B63"/>
<path d="M226.662 338.768C228.508 338.768 230.003 337.27 230.003 335.422C230.003 333.574 228.508 332.076 226.662 332.076C224.817 332.076 223.321 333.574 223.321 335.422C223.321 337.27 224.817 338.768 226.662 338.768Z" fill="#505B63"/>
<path d="M250.001 338.768C251.847 338.768 253.342 337.27 253.342 335.422C253.342 333.574 251.847 332.076 250.001 332.076C248.156 332.076 246.66 333.574 246.66 335.422C246.66 337.27 248.156 338.768 250.001 338.768Z" fill="#505B63"/>
<path d="M273.322 338.768C275.167 338.768 276.663 337.27 276.663 335.422C276.663 333.574 275.167 332.076 273.322 332.076C271.476 332.076 269.98 333.574 269.98 335.422C269.98 337.27 271.476 338.768 273.322 338.768Z" fill="#505B63"/>
<path d="M296.66 338.768C298.506 338.768 300.001 337.27 300.001 335.422C300.001 333.574 298.506 332.076 296.66 332.076C294.815 332.076 293.319 333.574 293.319 335.422C293.319 337.27 294.815 338.768 296.66 338.768Z" fill="#505B63"/>
<path d="M411.371 109.342C411.371 111.187 412.869 112.683 414.717 112.683C416.565 112.683 418.062 111.187 418.062 109.342C418.062 107.496 416.565 106.001 414.717 106.001C412.869 106.001 411.371 107.496 411.371 109.342Z" fill="#505B63"/>
<path d="M411.371 132.662C411.371 134.507 412.869 136.003 414.717 136.003C416.565 136.003 418.062 134.507 418.062 132.662C418.062 130.817 416.565 129.321 414.717 129.321C412.869 129.321 411.371 130.817 411.371 132.662Z" fill="#505B63"/>
<path d="M411.371 156C411.371 157.846 412.869 159.341 414.717 159.341C416.565 159.341 418.062 157.846 418.062 156C418.062 154.155 416.565 152.659 414.717 152.659C412.869 152.659 411.371 154.155 411.371 156Z" fill="#505B63"/>
<path d="M388 109.341C388 111.187 389.498 112.682 391.346 112.682C393.194 112.682 394.691 111.187 394.691 109.341C394.691 107.496 393.194 106 391.346 106C389.498 106 388 107.496 388 109.341Z" fill="#505B63"/>
<path d="M388 132.662C388 134.507 389.498 136.003 391.346 136.003C393.194 136.003 394.691 134.507 394.691 132.662C394.691 130.817 393.194 129.321 391.346 129.321C389.498 129.321 388 130.817 388 132.662Z" fill="#505B63"/>
<path d="M388 156.002C388 157.847 389.498 159.343 391.346 159.343C393.194 159.343 394.691 157.847 394.691 156.002C394.691 154.156 393.194 152.66 391.346 152.66C389.498 152.66 388 154.156 388 156.002Z" fill="#505B63"/>
<path d="M464.451 49.2379C464.451 54.3285 460.327 58.4757 455.226 58.4757C450.142 58.4757 446 54.3463 446 49.2379C446 44.1473 450.124 40 455.226 40C460.327 40.0178 464.451 44.1473 464.451 49.2379Z" stroke="#2E8256" stroke-width="3" stroke-miterlimit="10" stroke-linecap="round" stroke-linejoin="round"/>
<path d="M687.857 308.199C621.481 342.316 513.899 342.316 447.509 308.199C381.118 274.083 381.133 218.776 447.509 184.667C513.884 150.558 621.467 150.558 687.857 184.667C754.247 218.776 754.196 274.09 687.857 308.199Z" fill="#F5F5F5"/>
<path d="M505.442 269.965L468.412 248.591C467.847 248.303 467.228 248.139 466.595 248.11C465.962 248.081 465.33 248.187 464.742 248.422L426.978 270.222C425.943 270.699 425.899 271.551 426.889 272.123L464.632 293.857C465.175 294.135 465.782 294.264 466.391 294.233C467.001 294.203 467.591 294.012 468.104 293.681L505.538 272.211C505.747 272.102 505.921 271.936 506.039 271.732C506.157 271.527 506.215 271.294 506.205 271.058C506.195 270.822 506.118 270.594 505.983 270.4C505.848 270.207 505.66 270.056 505.442 269.965Z" fill="#E0E0E0"/>
<path d="M564.941 251.879C544.06 251.879 527.133 243.812 527.133 233.86C527.133 223.908 544.06 215.84 564.941 215.84C585.822 215.84 602.75 223.908 602.75 233.86C602.75 243.812 585.822 251.879 564.941 251.879Z" fill="#E0E0E0"/>
<path d="M434.325 259.887C434.259 256.43 431.638 249.31 427.968 244.884C424.298 240.458 418.602 237.273 414.624 238.712C410.91 240.055 411.402 244.943 415.989 248.107C420.577 251.27 427.447 255.234 429.539 260.805L433.833 267.616L434.325 259.887Z" fill="#2E8256"/>
<path opacity="0.1" d="M434.325 259.887C434.259 256.43 431.638 249.31 427.968 244.884C424.298 240.458 418.602 237.273 414.624 238.712C410.91 240.055 411.402 244.943 415.989 248.107C420.577 251.27 427.447 255.234 429.539 260.805L433.833 267.616L434.325 259.887Z" fill="black"/>
<path d="M434.668 264.614C434.612 264.612 434.559 264.592 434.516 264.556C434.473 264.52 434.444 264.471 434.433 264.416C431.915 252.672 422.197 243.226 416.45 241.207C416.387 241.184 416.335 241.137 416.305 241.078C416.275 241.018 416.269 240.948 416.288 240.884C416.299 240.853 416.316 240.823 416.338 240.798C416.36 240.773 416.387 240.753 416.417 240.739C416.447 240.724 416.48 240.716 416.513 240.715C416.547 240.713 416.58 240.718 416.611 240.73C422.483 242.785 432.37 252.364 434.924 264.306C434.938 264.371 434.925 264.439 434.89 264.495C434.854 264.551 434.798 264.591 434.734 264.607L434.668 264.614Z" fill="white"/>
<path d="M433.038 272.197C432.444 270.266 430.014 267.095 426.131 264.519C421.83 261.656 416.435 260.409 415.121 258.148C413.58 255.432 415.855 252.804 420.259 253.267C424.663 253.729 432.4 259.55 433.787 268.49L433.038 272.197Z" fill="#2E8256"/>
<path d="M433.846 270.112C433.798 270.109 433.752 270.092 433.713 270.063C433.674 270.034 433.644 269.995 433.626 269.951C429.832 259.902 422.051 256.489 418.469 256.085C418.404 256.076 418.344 256.042 418.303 255.99C418.262 255.938 418.243 255.872 418.249 255.806C418.252 255.773 418.261 255.741 418.277 255.711C418.293 255.682 418.314 255.656 418.34 255.635C418.367 255.615 418.397 255.6 418.429 255.591C418.461 255.583 418.495 255.581 418.528 255.586C422.491 256.027 430.221 259.513 434.096 269.774C434.111 269.814 434.116 269.856 434.11 269.897C434.104 269.938 434.088 269.978 434.063 270.011C434.039 270.045 434.006 270.072 433.968 270.089C433.93 270.107 433.888 270.115 433.846 270.112Z" fill="white"/>
<path d="M676.152 248.826L671.807 246.345C671.807 246.345 669.722 234.865 671.279 225C673.481 211.128 682.92 206.342 686.348 207.722C689.775 209.102 690.583 213.212 684.388 221.228C680.732 225.962 676.035 235.959 676.152 248.826Z" fill="#2E8256"/>
<g opacity="0.1">
<path opacity="0.1" d="M676.152 248.826L671.807 246.345C671.807 246.345 669.722 234.865 671.279 225C673.481 211.128 682.92 206.342 686.348 207.722C689.775 209.102 690.583 213.212 684.388 221.228C680.732 225.962 676.035 235.959 676.152 248.826Z" fill="black"/>
</g>
<path d="M674.578 243.328H674.622C674.703 243.317 674.776 243.275 674.826 243.21C674.875 243.146 674.897 243.064 674.887 242.983C673.088 229.992 678.314 215.767 684.179 210.034C684.238 209.977 684.273 209.898 684.274 209.815C684.275 209.733 684.244 209.653 684.186 209.594C684.129 209.534 684.05 209.5 683.968 209.499C683.885 209.497 683.805 209.529 683.746 209.586C677.771 215.458 672.45 229.889 674.27 243.064C674.282 243.137 674.32 243.204 674.376 243.252C674.432 243.301 674.504 243.328 674.578 243.328Z" fill="white"/>
<path d="M688.201 255.799C688.891 256.188 690.3 255.329 690.843 254.962C691.781 254.335 692.54 253.475 693.045 252.467C693.601 251.329 693.791 250.047 693.588 248.797C693.48 248.133 693.323 247.478 693.119 246.837C692.942 246.198 692.759 245.567 692.575 244.928C692.352 244.316 692.258 243.664 692.296 243.013C692.465 241.714 693.618 240.811 694.667 240.018C695.717 239.225 697.038 237.999 697.031 236.429C696.944 235.215 696.459 234.064 695.651 233.155C694.917 232.201 694.014 231.364 693.339 230.366C692.799 229.665 692.516 228.799 692.539 227.914C692.612 227.377 692.794 226.859 693.074 226.395C693.71 225.425 694.267 224.407 694.741 223.349C694.97 222.814 695.042 222.224 694.949 221.65C694.855 221.075 694.6 220.539 694.212 220.105C693.831 219.818 693.396 219.611 692.933 219.497C692.47 219.382 691.989 219.361 691.518 219.437C690.628 219.538 689.773 219.839 689.015 220.317C686.527 221.697 685.111 224.641 682.468 225.705C681.42 226.03 680.354 226.292 679.275 226.49C678.735 226.59 678.221 226.801 677.768 227.111C677.314 227.421 676.93 227.822 676.64 228.289C675.671 230.226 677.47 232.612 676.787 234.667C676.185 236.48 674.424 237.177 673.425 238.814C673.023 239.538 672.862 240.371 672.963 241.192C673.05 242.583 673.391 243.946 673.968 245.215C674.61 246.475 675.346 247.684 676.17 248.833C676.192 248.877 688.098 255.733 688.201 255.799Z" fill="#2E8256"/>
<path d="M681.155 252.041C681.196 252.04 681.237 252.031 681.274 252.014C681.312 251.997 681.346 251.973 681.374 251.943C681.402 251.913 681.423 251.877 681.438 251.839C681.452 251.8 681.458 251.759 681.456 251.718C680.942 239.423 686.733 225.852 690.947 221.91C690.976 221.882 690.999 221.849 691.015 221.811C691.03 221.774 691.039 221.734 691.039 221.694C691.039 221.653 691.03 221.613 691.015 221.576C690.999 221.539 690.976 221.505 690.947 221.477C690.888 221.42 690.809 221.388 690.726 221.388C690.644 221.388 690.565 221.42 690.506 221.477C686.212 225.492 680.304 239.291 680.817 251.755C680.825 251.837 680.864 251.913 680.928 251.967C680.991 252.02 681.072 252.047 681.155 252.041Z" fill="white"/>
<path d="M682.99 237.515C683.019 237.522 683.049 237.522 683.078 237.515C685.989 236.708 688.979 236.216 691.996 236.047C692.078 236.047 692.156 236.015 692.214 235.957C692.272 235.899 692.304 235.821 692.304 235.739C692.304 235.657 692.272 235.579 692.214 235.521C692.156 235.463 692.078 235.431 691.996 235.431C688.925 235.586 685.88 236.079 682.916 236.899C682.877 236.91 682.841 236.93 682.809 236.956C682.777 236.982 682.751 237.014 682.732 237.05C682.713 237.086 682.701 237.126 682.697 237.167C682.694 237.207 682.698 237.248 682.711 237.288C682.729 237.349 682.765 237.404 682.815 237.445C682.865 237.486 682.926 237.51 682.99 237.515Z" fill="white"/>
<path d="M636.673 205.366V203.604L667.978 221.712L666.488 222.593L636.673 205.366Z" fill="#363636"/>
<path d="M675.667 86.1496C675.591 86.196 675.532 86.2646 675.496 86.346C675.461 86.4274 675.451 86.5177 675.469 86.6047L701.445 201.755L702.179 205.021C702.537 205.047 702.894 204.976 703.214 204.815L704.954 203.81C705.03 203.764 705.091 203.696 705.126 203.614C705.162 203.533 705.171 203.442 705.152 203.355L678.522 85.1808C678.508 85.1168 678.479 85.057 678.437 85.0064C678.396 84.9557 678.343 84.9156 678.283 84.8892C678.223 84.8627 678.157 84.8508 678.092 84.8542C678.026 84.8577 677.963 84.8765 677.906 84.9092L675.667 86.1496Z" fill="#363636"/>
<path d="M672.448 84.5788L699.21 203.318C699.257 203.505 699.376 203.666 699.54 203.766L701.28 204.786C701.556 204.937 701.868 205.013 702.183 205.006L701.449 201.74L675.443 86.2891L672.448 84.5788Z" fill="#455A64"/>
<path d="M669.47 244.635V248.092C669.804 248.099 670.134 248.024 670.432 247.872L672.047 246.94C672.155 246.889 672.248 246.811 672.316 246.713C672.385 246.615 672.426 246.501 672.436 246.382V143.218L669.448 144.943L669.47 244.635Z" fill="#363636"/>
<path d="M666.476 143.225V246.382C666.494 246.495 666.539 246.602 666.608 246.693C666.677 246.784 666.768 246.856 666.873 246.903L668.48 247.835C668.779 247.998 669.116 248.08 669.457 248.07V144.943L666.476 143.225Z" fill="#455A64"/>
<path d="M630.772 225.727C631.1 225.714 631.42 225.62 631.704 225.455L633.363 224.494C633.469 224.433 633.56 224.351 633.631 224.252C633.702 224.153 633.751 224.041 633.774 223.921L651.559 131.144L648.572 132.869L631.411 222.417L630.772 225.727Z" fill="#363636"/>
<path d="M627.789 223.988C627.805 224.108 627.851 224.223 627.923 224.322C627.995 224.421 628.09 224.5 628.2 224.553L629.719 225.433L629.793 225.478C630.093 225.637 630.429 225.718 630.769 225.712L631.407 222.373L648.568 132.854L645.574 131.136L627.818 223.87L627.789 223.988Z" fill="#455A64"/>
<path d="M667.508 226.615L633.685 207.091V203.648L667.508 223.173V226.615Z" fill="#455A64"/>
<path d="M714.189 175.485V176.725C714.171 177.056 714.075 177.378 713.909 177.665C713.744 177.952 713.513 178.196 713.235 178.377L703.216 184.161C702.921 184.309 702.595 184.386 702.265 184.386C701.935 184.386 701.609 184.309 701.315 184.161L616.75 135.342C616.475 135.16 616.246 134.915 616.081 134.629C615.917 134.342 615.822 134.021 615.804 133.691V132.45C615.821 132.12 615.915 131.798 616.08 131.511C616.244 131.225 616.474 130.98 616.75 130.799L626.77 125.015C627.065 124.863 627.392 124.784 627.724 124.784C628.056 124.784 628.383 124.863 628.678 125.015L713.235 173.833C713.513 174.014 713.744 174.257 713.91 174.544C714.076 174.831 714.172 175.154 714.189 175.485Z" fill="#2E8256"/>
<path opacity="0.4" d="M713.233 174.934L703.213 180.718C702.919 180.867 702.593 180.944 702.263 180.944C701.933 180.944 701.607 180.867 701.312 180.718L616.748 131.9C616.633 131.861 616.532 131.788 616.46 131.689C616.389 131.59 616.351 131.471 616.351 131.349C616.351 131.227 616.389 131.109 616.46 131.01C616.532 130.911 616.633 130.837 616.748 130.799L626.767 125.015C627.063 124.863 627.39 124.784 627.722 124.784C628.054 124.784 628.381 124.863 628.676 125.015L713.233 173.833C713.761 174.134 713.761 174.626 713.233 174.934Z" fill="white"/>
<path opacity="0.1" d="M702.269 180.946V184.388C702.599 184.393 702.924 184.315 703.216 184.161L713.235 178.362C713.512 178.18 713.742 177.936 713.908 177.65C714.074 177.363 714.17 177.041 714.189 176.711V175.47C714.178 175.18 714.106 174.895 713.98 174.634C713.854 174.373 713.675 174.14 713.455 173.951C713.785 174.252 713.719 174.685 713.264 174.92L703.245 180.704C702.946 180.867 702.61 180.95 702.269 180.946Z" fill="black"/>
<path d="M706.835 178.626L709.625 177.019C710.091 176.713 710.484 176.309 710.777 175.835C711.07 175.36 711.256 174.827 711.32 174.274L717.067 74.6478C717.072 74.104 716.94 73.5677 716.683 73.0882C716.427 72.6086 716.054 72.201 715.599 71.9027L632.298 23.8183C631.805 23.5688 631.261 23.4387 630.709 23.4387C630.156 23.4387 629.612 23.5688 629.119 23.8183L626.33 25.4258C625.864 25.7307 625.471 26.1349 625.179 26.6095C624.887 27.084 624.704 27.6173 624.642 28.171L618.887 127.797C618.884 128.34 619.017 128.876 619.273 129.355C619.53 129.835 619.902 130.243 620.355 130.542L703.657 178.626C704.15 178.876 704.694 179.006 705.246 179.006C705.798 179.006 706.343 178.876 706.835 178.626Z" fill="#E0E0E0"/>
<path d="M624.679 27.892C624.848 27.0846 625.538 26.7984 626.338 27.2535L709.625 75.3451C710.092 75.6376 710.47 76.0511 710.719 76.5416L716.687 73.0991C716.428 72.6205 716.048 72.2181 715.586 71.932L632.298 23.8183C631.807 23.5705 631.264 23.4415 630.713 23.4415C630.162 23.4415 629.619 23.5705 629.127 23.8183L626.324 25.4331C625.9 25.713 625.536 26.0746 625.254 26.4968C624.971 26.9191 624.776 27.3934 624.679 27.892Z" fill="#FAFAFA"/>
<path d="M711.109 78.0977L705.354 177.716C705.378 177.922 705.34 178.131 705.244 178.315C705.148 178.498 704.999 178.649 704.816 178.747C704.633 178.845 704.425 178.886 704.219 178.865C704.012 178.843 703.817 178.76 703.659 178.626L620.372 130.542C619.918 130.243 619.546 129.835 619.29 129.356C619.033 128.876 618.901 128.34 618.904 127.797L624.644 28.171C624.621 27.9663 624.661 27.7595 624.756 27.5772C624.852 27.3949 625 27.2453 625.181 27.1475C625.363 27.0498 625.569 27.0084 625.774 27.0286C625.979 27.0487 626.173 27.1296 626.332 27.2608L709.626 75.3452C710.083 75.6439 710.458 76.0522 710.717 76.533C710.976 77.0137 711.111 77.5516 711.109 78.0977Z" fill="#F0F0F0"/>
<path d="M648.602 40.8839V46.2421C648.613 46.4745 648.68 46.7008 648.796 46.9025C648.912 47.1041 649.075 47.2753 649.27 47.4018L683.709 67.2712C683.916 67.3768 684.145 67.4319 684.377 67.4319C684.61 67.4319 684.838 67.3768 685.045 67.2712L686.682 66.317C686.875 66.1903 687.035 66.02 687.15 65.8198C687.265 65.6195 687.331 65.3951 687.343 65.1646V62.4928L693.288 59.0504L696.224 60.7679V54.6537C696.212 54.4226 696.144 54.1977 696.028 53.9974C695.912 53.7971 695.75 53.6271 695.556 53.5013L661.117 33.6099C660.91 33.5043 660.681 33.4492 660.449 33.4492C660.217 33.4492 659.988 33.5043 659.781 33.6099L649.248 39.7241C649.057 39.8531 648.899 40.0253 648.786 40.2268C648.674 40.4283 648.611 40.6534 648.602 40.8839Z" fill="#263238"/>
<path d="M648.599 40.8839V46.2421C648.612 46.4732 648.679 46.6981 648.795 46.8984C648.911 47.0987 649.073 47.2686 649.267 47.3945L683.707 67.2712C683.913 67.3762 684.143 67.4291 684.375 67.4253V60.5477C684.142 60.5502 683.912 60.4947 683.707 60.3863L649.245 40.4949C648.922 40.3114 648.886 40.0178 649.128 39.8122C648.969 39.9438 648.841 40.1072 648.75 40.2919C648.659 40.4765 648.607 40.6782 648.599 40.8839Z" fill="#363636"/>
<path d="M695.638 54.272L685.047 60.3862C684.84 60.4919 684.611 60.547 684.379 60.547C684.147 60.547 683.918 60.4919 683.711 60.3862L649.25 40.4948C649.171 40.4657 649.103 40.4131 649.055 40.3442C649.007 40.2753 648.982 40.1934 648.982 40.1095C648.982 40.0256 649.007 39.9437 649.055 39.8748C649.103 39.8059 649.171 39.7533 649.25 39.7241L659.841 33.6099C660.048 33.5043 660.277 33.4492 660.509 33.4492C660.741 33.4492 660.97 33.5043 661.177 33.6099L695.638 53.5013C695.721 53.527 695.792 53.5782 695.843 53.6475C695.894 53.7168 695.922 53.8006 695.922 53.8867C695.922 53.9727 695.894 54.0565 695.843 54.1258C695.792 54.1952 695.721 54.2464 695.638 54.272Z" fill="#455A64"/>
<path d="M700.96 97.4092C700.549 104.514 695.132 107.34 688.857 103.722C682.581 100.103 677.847 91.4051 678.243 84.2926C678.639 77.1801 684.071 74.3616 690.354 77.9876C696.637 81.6135 701.364 90.2821 700.96 97.4092Z" fill="#2E8256"/>
<path opacity="0.1" d="M682.27 77.0114L689.61 90.8546L690.344 77.9876C687.298 76.2407 684.472 75.9911 682.27 77.0114Z" fill="black"/>
<path opacity="0.2" d="M679.993 93.1667L689.616 90.8546L682.276 77.0113C679.964 78.0903 678.408 80.6226 678.195 84.2999C678.112 87.3539 678.727 90.3865 679.993 93.1667Z" fill="black"/>
<path d="M672.581 75.7562L672.515 76.8865C672.528 77.0093 672.504 77.1331 672.447 77.2423C672.389 77.3515 672.301 77.4413 672.192 77.5002C672.084 77.5591 671.961 77.5846 671.838 77.5733C671.715 77.5621 671.598 77.5147 671.502 77.437L632.952 55.1895C632.679 55.0099 632.454 54.7648 632.299 54.4764C632.144 54.188 632.063 53.8654 632.064 53.538L632.123 52.4076C632.109 52.2836 632.132 52.1581 632.189 52.0474C632.247 51.9366 632.337 51.8457 632.446 51.7864C632.556 51.7271 632.681 51.7022 632.806 51.7148C632.93 51.7274 633.047 51.777 633.143 51.8571L671.686 74.134C671.957 74.3101 672.18 74.5501 672.336 74.8331C672.492 75.116 672.577 75.433 672.581 75.7562Z" fill="#363636"/>
<path d="M669.528 82.2081L669.417 84.0724C669.417 84.2909 669.471 84.506 669.575 84.6982C669.679 84.8905 669.829 85.0538 670.012 85.1734L671.355 85.878C671.418 85.9324 671.497 85.9663 671.58 85.9751C671.663 85.9839 671.746 85.9673 671.82 85.9275C671.893 85.8877 671.952 85.8265 671.99 85.7522C672.028 85.6778 672.042 85.5937 672.031 85.511L672.133 83.6467C672.134 83.4282 672.079 83.2131 671.976 83.0209C671.872 82.8286 671.722 82.6653 671.539 82.5457L670.203 81.8117C670.138 81.7536 670.056 81.7176 669.97 81.7089C669.883 81.7002 669.796 81.7193 669.721 81.7634C669.645 81.8075 669.586 81.8743 669.552 81.9542C669.517 82.0342 669.508 82.123 669.528 82.2081Z" fill="#2E8256"/>
<path d="M632.489 63.4764L665.394 82.4503C665.49 82.5279 665.607 82.5753 665.73 82.5866C665.853 82.5978 665.976 82.5724 666.085 82.5134C666.193 82.4545 666.281 82.3647 666.339 82.2555C666.396 82.1463 666.42 82.0225 666.407 81.8998L666.466 80.7694C666.468 80.4418 666.387 80.119 666.232 79.8305C666.077 79.542 665.852 79.297 665.578 79.1179L632.702 60.144C632.606 60.0664 632.489 60.0189 632.366 60.0077C632.243 59.9964 632.12 60.0219 632.011 60.0808C631.903 60.1397 631.814 60.2295 631.757 60.3387C631.7 60.448 631.676 60.5718 631.689 60.6945L631.623 61.8322C631.618 62.1569 631.695 62.4776 631.846 62.7649C631.997 63.0522 632.218 63.2968 632.489 63.4764Z" fill="#455A64"/>
<path d="M669.158 90.5316L669.055 92.396C669.055 92.6145 669.109 92.8296 669.213 93.0218C669.317 93.2141 669.467 93.3774 669.65 93.497L670.986 94.2677C671.049 94.3221 671.127 94.3559 671.21 94.3647C671.293 94.3736 671.377 94.357 671.45 94.3172C671.523 94.2773 671.583 94.2162 671.62 94.1418C671.658 94.0674 671.672 93.9833 671.661 93.9007L671.764 92.0363C671.764 91.8178 671.71 91.6028 671.606 91.4105C671.502 91.2183 671.352 91.0549 671.169 90.9353L669.833 90.2013C669.772 90.1501 669.698 90.1177 669.619 90.108C669.54 90.0983 669.46 90.1117 669.388 90.1467C669.317 90.1817 669.257 90.2367 669.216 90.305C669.175 90.3733 669.155 90.4521 669.158 90.5316Z" fill="#2E8256"/>
<path opacity="0.1" d="M669.158 90.5316L669.055 92.396C669.055 92.6145 669.109 92.8296 669.213 93.0218C669.317 93.2141 669.467 93.3774 669.65 93.497L670.986 94.2677C671.049 94.3221 671.127 94.3559 671.21 94.3647C671.293 94.3736 671.377 94.357 671.45 94.3172C671.523 94.2773 671.583 94.2162 671.62 94.1418C671.658 94.0674 671.672 93.9833 671.661 93.9007L671.764 92.0363C671.764 91.8178 671.71 91.6028 671.606 91.4105C671.502 91.2183 671.352 91.0549 671.169 90.9353L669.833 90.2013C669.772 90.1501 669.698 90.1177 669.619 90.108C669.54 90.0983 669.46 90.1117 669.388 90.1467C669.317 90.1817 669.257 90.2367 669.216 90.305C669.175 90.3733 669.155 90.4521 669.158 90.5316Z" fill="black"/>
<path d="M632.123 71.8366L665.013 90.8179C665.109 90.8955 665.226 90.9429 665.349 90.9542C665.472 90.9654 665.595 90.94 665.704 90.881C665.812 90.8221 665.901 90.7323 665.958 90.6231C666.015 90.5139 666.039 90.3901 666.026 90.2674L666.085 89.137C666.086 88.8095 666.005 88.487 665.85 88.1986C665.695 87.9102 665.471 87.6651 665.197 87.4855L632.306 68.5043C632.211 68.4266 632.094 68.3792 631.971 68.368C631.848 68.3567 631.724 68.3822 631.616 68.4411C631.508 68.5 631.419 68.5898 631.362 68.699C631.304 68.8082 631.281 68.932 631.294 69.0548L631.227 70.1925C631.228 70.5195 631.31 70.8412 631.466 71.1284C631.623 71.4156 631.848 71.659 632.123 71.8366Z" fill="#455A64"/>
<path d="M668.781 98.9653L668.671 100.822C668.671 101.041 668.725 101.256 668.829 101.448C668.932 101.64 669.083 101.804 669.265 101.923L670.616 102.701C670.68 102.752 670.758 102.783 670.839 102.789C670.921 102.796 671.003 102.779 671.074 102.74C671.146 102.701 671.205 102.642 671.244 102.57C671.282 102.498 671.299 102.416 671.291 102.334L671.394 100.477C671.396 100.258 671.343 100.043 671.239 99.85C671.135 99.6575 670.984 99.4945 670.799 99.3763L669.456 98.5983C669.393 98.5439 669.315 98.5101 669.232 98.5012C669.149 98.4924 669.065 98.509 668.992 98.5488C668.919 98.5886 668.859 98.6498 668.822 98.7242C668.784 98.7986 668.77 98.8827 668.781 98.9653Z" fill="#2E8256"/>
<path opacity="0.2" d="M668.781 98.9653L668.671 100.822C668.671 101.041 668.725 101.256 668.829 101.448C668.932 101.64 669.083 101.804 669.265 101.923L670.616 102.701C670.68 102.752 670.758 102.783 670.839 102.789C670.921 102.796 671.003 102.779 671.074 102.74C671.146 102.701 671.205 102.642 671.244 102.57C671.282 102.498 671.299 102.416 671.291 102.334L671.394 100.477C671.396 100.258 671.343 100.043 671.239 99.85C671.135 99.6575 670.984 99.4945 670.799 99.3763L669.456 98.5983C669.393 98.5439 669.315 98.5101 669.232 98.5012C669.149 98.4924 669.065 98.509 668.992 98.5488C668.919 98.5886 668.859 98.6498 668.822 98.7242C668.784 98.7986 668.77 98.8827 668.781 98.9653Z" fill="black"/>
<path d="M631.75 80.2703L664.655 99.2442C664.751 99.3219 664.868 99.3693 664.991 99.3805C665.113 99.3918 665.237 99.3663 665.345 99.3074C665.454 99.2485 665.542 99.1587 665.6 99.0495C665.657 98.9403 665.681 98.8165 665.668 98.6937L665.727 97.5707C665.728 97.2431 665.648 96.9203 665.493 96.6318C665.338 96.3433 665.113 96.0983 664.838 95.9192L631.955 76.938C631.859 76.8604 631.742 76.8129 631.62 76.8017C631.497 76.7904 631.373 76.8159 631.265 76.8748C631.156 76.9337 631.068 77.0235 631.01 77.1327C630.953 77.242 630.929 77.3658 630.942 77.4885L630.876 78.6188C630.873 78.9449 630.952 79.2666 631.104 79.5549C631.257 79.8432 631.479 80.089 631.75 80.2703Z" fill="#455A64"/>
<path d="M696.124 113.315L680.182 104.089C680.086 104.008 679.968 103.959 679.844 103.946C679.72 103.934 679.595 103.959 679.485 104.018C679.375 104.077 679.285 104.168 679.228 104.279C679.17 104.39 679.147 104.515 679.161 104.639L679.007 107.304C679.005 107.631 679.086 107.954 679.241 108.242C679.396 108.531 679.621 108.776 679.895 108.955L695.845 118.174C695.941 118.254 696.058 118.304 696.183 118.316C696.307 118.329 696.432 118.304 696.542 118.245C696.652 118.185 696.741 118.095 696.799 117.984C696.857 117.873 696.88 117.748 696.865 117.624L697.02 114.959C697.019 114.632 696.936 114.311 696.78 114.024C696.624 113.737 696.398 113.493 696.124 113.315Z" fill="#363636"/>
<path d="M699.458 134.887L676.028 121.36C675.932 121.282 675.816 121.235 675.693 121.223C675.57 121.212 675.446 121.237 675.338 121.296C675.229 121.355 675.141 121.445 675.084 121.554C675.026 121.664 675.002 121.787 675.015 121.91L674.949 123.04C674.945 123.368 675.025 123.692 675.18 123.981C675.336 124.27 675.562 124.514 675.837 124.692L699.267 138.22C699.363 138.297 699.479 138.345 699.602 138.356C699.725 138.367 699.849 138.342 699.957 138.283C700.066 138.224 700.154 138.134 700.211 138.025C700.269 137.916 700.293 137.792 700.28 137.669L700.346 136.524C700.347 136.199 700.266 135.878 700.111 135.592C699.956 135.306 699.731 135.064 699.458 134.887Z" fill="#455A64"/>
<path d="M698.942 143.776L675.513 130.241C675.419 130.16 675.302 130.11 675.179 130.096C675.055 130.083 674.93 130.107 674.821 130.166C674.711 130.225 674.622 130.315 674.565 130.426C674.508 130.536 674.485 130.661 674.5 130.784L674.434 131.922C674.432 132.25 674.512 132.573 674.667 132.861C674.822 133.15 675.048 133.395 675.322 133.573L698.752 147.094C698.847 147.171 698.963 147.218 699.085 147.229C699.207 147.241 699.33 147.216 699.438 147.158C699.546 147.1 699.635 147.011 699.693 146.903C699.751 146.795 699.776 146.673 699.764 146.551L699.831 145.428C699.833 145.1 699.753 144.777 699.598 144.488C699.442 144.2 699.217 143.955 698.942 143.776Z" fill="#455A64"/>
<path d="M698.427 152.672L674.998 139.122C674.902 139.045 674.785 138.997 674.662 138.986C674.54 138.975 674.416 139 674.308 139.059C674.199 139.118 674.111 139.208 674.053 139.317C673.996 139.426 673.972 139.55 673.985 139.673L673.919 140.803C673.915 141.131 673.995 141.455 674.15 141.744C674.305 142.032 674.531 142.277 674.807 142.455L698.236 155.975C698.332 156.053 698.449 156.1 698.572 156.111C698.695 156.123 698.818 156.097 698.927 156.038C699.035 155.979 699.124 155.89 699.181 155.78C699.239 155.671 699.262 155.547 699.249 155.425L699.315 154.316C699.315 153.99 699.234 153.669 699.079 153.382C698.924 153.095 698.7 152.851 698.427 152.672Z" fill="#455A64"/>
<path d="M697.9 161.553L674.478 147.996C674.383 147.917 674.266 147.868 674.143 147.855C674.019 147.842 673.895 147.867 673.786 147.925C673.676 147.983 673.586 148.073 673.528 148.182C673.47 148.292 673.445 148.416 673.458 148.54L673.392 149.677C673.393 150.005 673.475 150.328 673.632 150.616C673.788 150.904 674.013 151.149 674.288 151.329L697.687 164.849C697.783 164.929 697.901 164.979 698.025 164.991C698.149 165.004 698.274 164.979 698.384 164.92C698.494 164.861 698.584 164.77 698.641 164.659C698.699 164.548 698.722 164.423 698.708 164.299L698.766 163.205C698.771 162.879 698.694 162.558 698.542 162.27C698.391 161.981 698.171 161.735 697.9 161.553Z" fill="#455A64"/>
<path d="M667.022 121.36L663.653 119.415C663.557 119.337 663.441 119.289 663.318 119.278C663.195 119.267 663.071 119.292 662.963 119.351C662.855 119.41 662.766 119.5 662.709 119.609C662.651 119.718 662.628 119.842 662.64 119.965L661.598 137.698C661.596 138.026 661.676 138.349 661.831 138.638C661.986 138.926 662.212 139.171 662.486 139.35L665.855 141.288C665.951 141.367 666.067 141.416 666.191 141.429C666.314 141.442 666.439 141.418 666.548 141.359C666.658 141.301 666.747 141.211 666.806 141.102C666.864 140.992 666.888 140.868 666.876 140.745L667.911 123.011C667.913 122.683 667.833 122.36 667.678 122.072C667.523 121.783 667.297 121.538 667.022 121.36Z" fill="#2E8256"/>
<path d="M665.664 144.598L662.295 142.653C661.767 142.352 661.319 142.477 661.289 142.939C661.316 143.226 661.413 143.502 661.572 143.743C661.731 143.984 661.946 144.182 662.2 144.319L665.569 146.264C666.09 146.572 666.545 146.448 666.567 145.985C666.543 145.697 666.448 145.42 666.29 145.178C666.133 144.936 665.918 144.737 665.664 144.598Z" fill="#363636"/>
<path d="M655.027 123.143L651.658 121.198C651.563 121.118 651.445 121.068 651.321 121.056C651.197 121.043 651.071 121.068 650.962 121.127C650.852 121.187 650.762 121.278 650.704 121.388C650.647 121.499 650.624 121.625 650.638 121.749L650.095 131.041C650.093 131.369 650.174 131.691 650.329 131.98C650.484 132.268 650.709 132.513 650.983 132.693L654.381 134.638C654.477 134.718 654.595 134.767 654.719 134.78C654.843 134.793 654.968 134.768 655.078 134.708C655.188 134.649 655.278 134.558 655.335 134.447C655.393 134.337 655.416 134.211 655.402 134.087L655.916 124.78C655.915 124.455 655.833 124.135 655.678 123.849C655.523 123.564 655.3 123.321 655.027 123.143Z" fill="#2E8256"/>
<path opacity="0.1" d="M655.027 123.143L651.658 121.198C651.563 121.118 651.445 121.068 651.321 121.056C651.197 121.043 651.071 121.068 650.962 121.127C650.852 121.187 650.762 121.278 650.704 121.388C650.647 121.499 650.624 121.625 650.638 121.749L650.095 131.041C650.093 131.369 650.174 131.691 650.329 131.98C650.484 132.268 650.709 132.513 650.983 132.693L654.381 134.638C654.477 134.718 654.595 134.767 654.719 134.78C654.843 134.793 654.968 134.768 655.078 134.708C655.188 134.649 655.278 134.558 655.335 134.447C655.393 134.337 655.416 134.211 655.402 134.087L655.916 124.78C655.915 124.455 655.833 124.135 655.678 123.849C655.523 123.564 655.3 123.321 655.027 123.143Z" fill="black"/>
<path d="M654.162 137.992L650.793 136.047C650.264 135.746 649.816 135.871 649.794 136.333C649.819 136.62 649.914 136.896 650.072 137.137C650.229 137.378 650.444 137.576 650.697 137.713L654.066 139.658C654.595 139.959 655.042 139.834 655.064 139.372C655.04 139.085 654.945 138.809 654.787 138.568C654.629 138.327 654.415 138.129 654.162 137.992Z" fill="#363636"/>
<path d="M644.264 102.958L640.895 101.013C640.799 100.935 640.682 100.888 640.559 100.877C640.437 100.866 640.313 100.891 640.205 100.95C640.096 101.009 640.008 101.099 639.95 101.208C639.893 101.317 639.869 101.441 639.882 101.564L638.59 124.391C638.589 124.718 638.67 125.041 638.825 125.329C638.98 125.618 639.205 125.863 639.478 126.042L642.848 127.988C642.943 128.068 643.061 128.117 643.185 128.13C643.309 128.143 643.434 128.118 643.544 128.058C643.654 127.999 643.744 127.908 643.801 127.797C643.859 127.687 643.882 127.561 643.868 127.437L645.152 104.61C645.155 104.282 645.075 103.959 644.919 103.67C644.764 103.382 644.539 103.137 644.264 102.958Z" fill="#2E8256"/>
<path opacity="0.2" d="M644.264 102.958L640.895 101.013C640.799 100.935 640.682 100.888 640.559 100.877C640.437 100.866 640.313 100.891 640.205 100.95C640.096 101.009 640.008 101.099 639.95 101.208C639.893 101.317 639.869 101.441 639.882 101.564L638.59 124.391C638.589 124.718 638.67 125.041 638.825 125.329C638.98 125.618 639.205 125.863 639.478 126.042L642.848 127.988C642.943 128.068 643.061 128.117 643.185 128.13C643.309 128.143 643.434 128.118 643.544 128.058C643.654 127.999 643.744 127.908 643.801 127.797C643.859 127.687 643.882 127.561 643.868 127.437L645.152 104.61C645.155 104.282 645.075 103.959 644.919 103.67C644.764 103.382 644.539 103.137 644.264 102.958Z" fill="black"/>
<path d="M642.641 131.32L639.272 129.375C638.75 129.067 638.295 129.191 638.273 129.654C638.297 129.942 638.393 130.219 638.55 130.461C638.708 130.703 638.923 130.902 639.176 131.041L642.545 132.986C643.074 133.287 643.521 133.162 643.551 132.7C643.524 132.413 643.427 132.137 643.268 131.896C643.11 131.655 642.894 131.457 642.641 131.32Z" fill="#363636"/>
<path d="M632.184 106.386L628.815 104.441C628.719 104.363 628.602 104.316 628.479 104.305C628.356 104.293 628.233 104.319 628.124 104.378C628.016 104.437 627.927 104.526 627.87 104.636C627.812 104.745 627.789 104.869 627.802 104.991L627.068 117.741C627.066 118.068 627.148 118.39 627.305 118.678C627.461 118.965 627.688 119.209 627.963 119.385L631.332 121.33C631.428 121.407 631.544 121.454 631.666 121.466C631.788 121.477 631.911 121.452 632.019 121.394C632.127 121.336 632.215 121.248 632.273 121.14C632.331 121.032 632.356 120.909 632.345 120.787L633.079 108.038C633.079 107.709 632.998 107.386 632.841 107.098C632.685 106.809 632.459 106.565 632.184 106.386Z" fill="#2E8256"/>
<path opacity="0.3" d="M632.184 106.386L628.815 104.441C628.719 104.363 628.602 104.316 628.479 104.305C628.356 104.293 628.233 104.319 628.124 104.378C628.016 104.437 627.927 104.526 627.87 104.636C627.812 104.745 627.789 104.869 627.802 104.991L627.068 117.741C627.066 118.068 627.148 118.39 627.305 118.678C627.461 118.965 627.688 119.209 627.963 119.385L631.332 121.33C631.428 121.407 631.544 121.454 631.666 121.466C631.788 121.477 631.911 121.452 632.019 121.394C632.127 121.336 632.215 121.248 632.273 121.14C632.331 121.032 632.356 120.909 632.345 120.787L633.079 108.038C633.079 107.709 632.998 107.386 632.841 107.098C632.685 106.809 632.459 106.565 632.184 106.386Z" fill="black"/>
<path d="M631.161 124.663L627.792 122.718C627.27 122.417 626.823 122.541 626.793 123.004C626.819 123.29 626.915 123.566 627.072 123.806C627.23 124.047 627.444 124.245 627.696 124.384L631.065 126.329C631.594 126.637 632.041 126.505 632.071 126.05C632.043 125.762 631.946 125.485 631.788 125.243C631.629 125.002 631.414 124.802 631.161 124.663Z" fill="#363636"/>
<path d="M548.631 139.673L542.906 136.304C542.517 137.324 542.172 138.22 541.834 138.954C541.496 139.688 540.043 140.59 539.338 140.913C537.467 141.772 536.623 142.792 535.14 143.989C533.98 144.928 533.07 145.082 533.165 145.457C533.312 145.859 533.606 146.19 533.988 146.383C534.369 146.577 534.81 146.618 535.221 146.499C536.136 146.266 537.02 145.926 537.856 145.486C537.048 146.976 536.007 148.326 534.773 149.486C531.954 152.151 531.609 153.971 536.513 154.624C539.581 155.05 542.282 153.472 545.482 146.991C546.704 144.629 547.757 142.184 548.631 139.673Z" fill="#B16668"/>
<path d="M556.823 82.8098C557.474 84.6368 558.259 86.4131 559.172 88.124C560.104 89.7168 559.319 115.128 558.849 117.256C558.379 119.385 549.079 140.194 549.079 140.194C547.773 140.471 546.417 140.408 545.142 140.011C543.867 139.614 542.716 138.896 541.798 137.926L548.683 116.148L549.145 97.622C549.145 97.622 548.874 84.2265 556.823 82.8098Z" fill="#2E8256"/>
<path opacity="0.1" d="M556.823 82.8098C557.474 84.6368 558.259 86.4131 559.172 88.124C560.104 89.7168 559.319 115.128 558.849 117.256C558.379 119.385 549.079 140.194 549.079 140.194C547.773 140.471 546.417 140.408 545.142 140.011C543.867 139.614 542.716 138.896 541.798 137.926L548.683 116.148L549.145 97.622C549.145 97.622 548.874 84.2265 556.823 82.8098Z" fill="black"/>
<path d="M585.972 229.434H579.095V217.66H585.972V229.434Z" fill="#B16668"/>
<path d="M557.849 220.523L550.978 220.758L550.633 208.302L557.849 208.067V220.523Z" fill="#B16668"/>
<path d="M585 133.639C585 140.245 585.455 178.413 585.455 178.413C585.617 180.3 587.43 183.661 587.577 190.466C587.782 200.331 586.263 223.576 586.263 223.576C585.076 224.161 583.775 224.477 582.452 224.504C581.129 224.53 579.817 224.266 578.607 223.731C578.607 223.731 573.205 190.847 572.001 181.085C570.929 172.556 567.215 149.802 567.215 149.802L561.901 178.59C562.694 182.172 562.981 185.849 562.753 189.511C562.43 194.033 558.246 216.669 558.246 216.669C557.047 217.346 555.715 217.751 554.343 217.857C552.97 217.962 551.592 217.765 550.304 217.279C550.304 217.279 549.893 181.753 549.82 177.643C549.724 172.916 551.787 132.267 551.787 132.267L585 133.639Z" fill="#363636"/>
<path d="M579.081 226.072V225.096C578.714 225.096 578.487 225.448 578.347 226.336C578.244 226.967 578.149 227.445 577.943 228.281C577.635 229.483 577.233 230.659 576.74 231.797C575.771 234.197 574.956 235.085 572.725 237.889C571.962 238.664 571.249 239.485 570.589 240.348C570.178 241.082 570.031 243.145 570.736 243.615C573.334 245.347 577.276 245.391 580.065 244.576C581.105 244.286 582.039 243.702 582.756 242.895C583.473 242.088 583.943 241.092 584.109 240.025C584.212 239.394 584.175 238.748 584.249 238.11C584.491 236.658 585.083 235.288 585.973 234.117C586.489 233.432 586.929 232.694 587.287 231.915C587.867 230.498 587.405 228.905 587.038 227.511C586.715 226.292 586.37 224.956 585.959 225.066V225.8C584.977 226.569 583.763 226.978 582.516 226.96C581.511 227.004 579.074 226.806 579.081 226.072Z" fill="#263238"/>
<path d="M550.885 218.637C550.525 218.637 550.231 219.15 549.417 220.002C548.242 221.199 546.875 222.192 545.372 222.938C542.796 224.222 537.79 226.204 535.529 227.224C534.113 227.863 534.179 229.573 535.639 230.549C537.1 231.526 540.638 232.223 544.873 231.283C547.185 230.762 550.195 228.626 552.096 228.744C553.997 228.861 557.564 228.832 558.966 227.863C560.368 226.894 559.81 224.824 559.414 223.048C558.981 221.11 558.437 218.086 557.799 218.218V218.886C556.969 220.141 552.705 220.648 550.885 219.723V218.637Z" fill="#263238"/>
<path d="M567.189 149.773C563.647 148.659 560.39 146.786 557.647 144.282C557.647 144.282 559.497 147.739 564.987 150.962L562.33 176.593L567.189 149.773Z" fill="#263238"/>
<path d="M573.074 83.2723C575.408 83.8375 580.128 84.6082 581.185 89.2691C582.455 94.8622 582.873 107.054 582.873 107.054L583.306 134.212C578.572 137.654 561.176 139.533 551.216 132.259C551.216 132.259 552.434 99.6919 552.434 94.6273C552.434 89.5627 555.253 83.4631 563.026 83.0154L573.074 83.2723Z" fill="#F5F5F5"/>
<path d="M563.146 82.4502C563.146 82.4502 559.652 85.2247 558.705 89.3278C557.758 93.4309 557.604 139.24 557.604 139.24C557.604 139.24 552.745 138.344 550.47 136.553C550.47 136.553 550.763 100.404 551.204 94.4291C551.938 85.3642 551.828 82.7512 563.117 81.797L563.146 82.4502Z" fill="#2E8256"/>
<path d="M575.104 81.7823C575.104 81.7823 568.622 85.7679 568.556 101.6C568.49 115.311 568.035 139.196 568.035 139.196C568.035 139.196 578.759 140.774 585.556 136.715C585.556 136.715 586.363 103.457 586.238 98.312C586.092 92.44 584.712 84.7917 582.818 84.0357C580.306 83.0936 577.728 82.3403 575.104 81.7823Z" fill="#2E8256"/>
<path d="M589.985 92.7409C593.024 97.8789 599.601 108.302 599.601 108.302C600.181 107.847 614.009 99.1854 617.129 95.3173C617.763 93.8556 618.55 92.4654 619.478 91.1702C620.667 89.6141 621.9 88.0947 623.148 86.5974C623.239 86.4805 623.348 86.3789 623.471 86.2964C623.94 86.0175 624.564 86.4285 624.718 86.9497C624.818 87.487 624.754 88.0418 624.535 88.5424C624.315 89.2177 623.625 90.1573 624.586 90.3187C625.415 90.3581 626.239 90.173 626.972 89.7829C628.19 89.2544 629.394 88.6746 630.568 88.0507C631.291 87.5765 632.116 87.282 632.976 87.1919C633.605 87.2181 634.21 87.4361 634.712 87.8166C635.213 88.1971 635.586 88.7219 635.78 89.3205C635.958 89.9229 636.01 90.5554 635.935 91.179C635.859 91.8026 635.656 92.4041 635.339 92.9464C634.694 94.0267 633.835 94.9635 632.814 95.699C630.664 97.3651 627.816 98.1285 625.21 98.8185C623.896 99.173 622.654 99.7543 621.54 100.536C619.463 102.004 608.644 111.208 603.462 114.996C598.771 118.431 597.45 117.088 594.712 114.313C591.975 111.539 581.655 98.4955 581.655 98.4955L589.985 92.7409Z" fill="#B16668"/>
<path d="M580.918 83.3603C587.95 85.4155 587.48 87.9038 592.163 95.3833C596.846 102.863 599.98 106.246 599.98 106.246L614.924 96.8292C617.068 98.3828 618.729 100.51 619.717 102.965C619.717 102.965 604.692 114.621 602.6 115.928C599.62 117.792 598.086 118.512 595.642 116.442C593.198 114.372 583.304 103.494 583.304 103.494C578.775 98.9358 577.835 86.7294 580.918 83.3603Z" fill="#2E8256"/>
<path opacity="0.1" d="M580.918 83.3603C587.95 85.4155 587.48 87.9038 592.163 95.3833C596.846 102.863 599.98 106.246 599.98 106.246L614.924 96.8292C617.068 98.3828 618.729 100.51 619.717 102.965C619.717 102.965 604.692 114.621 602.6 115.928C599.62 117.792 598.086 118.512 595.642 116.442C593.198 114.372 583.304 103.494 583.304 103.494C578.775 98.9358 577.835 86.7294 580.918 83.3603Z" fill="black"/>
<path opacity="0.1" d="M575.847 90.4508L572.881 94.1281L574.364 98.3046L570.467 108.302L575.164 98.3046L573.52 94.363L575.847 90.4508Z" fill="black"/>
<path opacity="0.1" d="M554.928 89.269L555.566 93.0712L552.997 96.4109L556.572 107.67L553.805 96.5356L556.175 93.4088L554.928 89.269Z" fill="black"/>
<path d="M555.271 67.3509C551.581 63.6618 551.581 57.6806 555.271 53.9915C558.96 50.3023 564.941 50.3023 568.63 53.9915C572.319 57.6806 572.319 63.6618 568.63 67.3509C564.941 71.04 558.96 71.04 555.271 67.3509Z" fill="#263238"/>
<path d="M578.277 67.3959C578.277 67.3959 576.751 74.5891 576.134 75.7708C575.727 76.5003 575.054 77.0446 574.255 77.2902L574.372 72.2256L578.277 67.3959Z" fill="#263238"/>
<path d="M576.36 57.0905C576.896 57.0257 577.439 57.0846 577.948 57.2628C578.457 57.4409 578.918 57.7336 579.296 58.1181C580.559 59.41 579.854 63.4396 578.283 67.3959L575.406 67.7262L576.36 57.0905Z" fill="#263238"/>
<path d="M574.532 67.7262C575.112 68.0712 575.934 66.9922 576.646 66.2142C577.358 65.4361 579.684 64.4526 580.851 66.8968C582.018 69.341 579.824 72.6881 577.989 73.2606C574.833 74.2515 574.319 72.2256 574.319 72.2256L574.091 83.9696C571.889 86.7662 566.993 90.0618 564.358 89.5921C562.244 89.2177 561.789 85.6505 563.801 83.3164V79.8519C562.393 80.0764 560.966 80.1502 559.543 80.0721C557.224 79.7124 555.763 77.8701 555.059 75.3672C553.928 71.3228 553.495 68.0272 554.457 60.122C555.506 51.4167 565.636 51.314 571.104 54.7638C576.572 58.2136 574.532 67.7262 574.532 67.7262Z" fill="#B16668"/>
<path d="M574.529 68.7024C574.815 68.7024 575.924 66.8674 576.643 66.2141C577.641 65.304 576.357 57.0905 576.357 57.0905C576.693 56.371 576.806 55.5677 576.684 54.7833C576.561 53.9988 576.207 53.2688 575.667 52.6865C574.302 51.2185 572.393 49.3468 566.191 50.0808C561.787 50.602 556.965 51.9819 553.074 50.0808C552.714 51.348 552.741 52.6939 553.152 53.9456C553.563 55.1973 554.338 56.2976 555.379 57.1052C555.379 57.1052 556.788 58.0154 560.517 58.4631C564.246 58.9108 569.978 58.375 570.793 58.2723C571.865 58.1255 572.092 59.1604 572.672 62.001C573.127 64.4525 573.553 68.6804 574.529 68.7024Z" fill="#263238"/>
<path d="M576.351 57.7291L579.845 55.8501C579.734 55.6149 579.576 55.4049 579.381 55.2326C579.186 55.0603 578.958 54.9294 578.711 54.8477C578.464 54.7661 578.203 54.7354 577.944 54.7575C577.684 54.7797 577.432 54.8542 577.203 54.9766C576.733 55.2362 576.381 55.668 576.222 56.1812C576.064 56.6945 576.11 57.2492 576.351 57.7291Z" fill="#263238"/>
<path d="M563.855 79.8519C563.855 79.8519 569.045 78.8096 570.857 77.8407C571.92 77.285 572.792 76.4234 573.36 75.3671C573.089 76.4319 572.605 77.4307 571.936 78.3031C570.615 79.9987 563.863 81.2391 563.863 81.2391L563.855 79.8519Z" fill="#9A4A4D"/>
<path d="M565.095 66.427C565.106 66.6302 565.177 66.8257 565.298 66.9892C565.42 67.1527 565.586 67.2771 565.777 67.3471C565.969 67.417 566.176 67.4295 566.374 67.3829C566.573 67.3363 566.753 67.2327 566.893 67.0848C567.033 66.937 567.126 66.7514 567.162 66.551C567.198 66.3506 567.174 66.1441 567.094 65.957C567.013 65.77 566.88 65.6105 566.71 65.4984C566.54 65.3862 566.341 65.3263 566.137 65.326C565.996 65.3278 565.856 65.358 565.727 65.4147C565.597 65.4714 565.48 65.5536 565.383 65.6562C565.286 65.7589 565.21 65.88 565.161 66.0124C565.111 66.1448 565.089 66.2858 565.095 66.427Z" fill="#263238"/>
<path d="M566.201 62.5075L568.403 63.7332C568.563 63.4291 568.599 63.0751 568.503 62.7453C568.407 62.4155 568.187 62.1356 567.89 61.9643C567.743 61.8883 567.583 61.842 567.419 61.8282C567.254 61.8144 567.089 61.8333 566.932 61.8838C566.775 61.9343 566.63 62.0154 566.504 62.1225C566.379 62.2295 566.276 62.3604 566.201 62.5075Z" fill="#263238"/>
<path d="M564.311 73.6055L561.941 74.501C561.994 74.6597 562.078 74.8063 562.188 74.9321C562.298 75.058 562.432 75.1605 562.583 75.2336C562.733 75.3068 562.897 75.3492 563.064 75.3582C563.231 75.3673 563.398 75.3428 563.555 75.2864C563.874 75.1584 564.131 74.9118 564.272 74.5983C564.413 74.2849 564.427 73.929 564.311 73.6055Z" fill="#9A4A4D"/>
<path d="M555.834 63.3735L557.86 61.8101C557.764 61.6736 557.642 61.5578 557.501 61.4698C557.36 61.3818 557.202 61.3233 557.037 61.2979C556.872 61.2725 556.704 61.2808 556.543 61.3221C556.382 61.3635 556.23 61.4371 556.098 61.5385C555.827 61.7518 555.648 62.0615 555.599 62.4031C555.55 62.7448 555.634 63.0923 555.834 63.3735Z" fill="#263238"/>
<path d="M556.459 66.1334C556.466 66.3381 556.534 66.5362 556.653 66.7029C556.772 66.8695 556.938 66.9973 557.129 67.0704C557.32 67.1435 557.529 67.1585 557.729 67.1136C557.929 67.0688 558.111 66.966 558.253 66.8182C558.395 66.6703 558.49 66.484 558.526 66.2824C558.563 66.0808 558.539 65.8729 558.458 65.6847C558.377 65.4965 558.243 65.3364 558.071 65.2243C557.9 65.1122 557.699 65.0531 557.494 65.0544C557.355 65.0573 557.218 65.0875 557.091 65.1432C556.964 65.199 556.849 65.2793 556.753 65.3795C556.657 65.4797 556.581 65.5979 556.531 65.7272C556.481 65.8566 556.456 65.9946 556.459 66.1334Z" fill="#263238"/>
<path d="M561.746 65.1498L561.408 71.3961L558.142 70.2878L561.746 65.1498Z" fill="#9A4A4D"/>
<path d="M560.617 88.8727C561.255 90.3848 562.43 91.0013 564.565 91.2435C565.632 91.3172 566.703 91.173 567.713 90.8197C568.722 90.4664 569.649 89.9113 570.438 89.1883L567.788 86.5533L564.426 89.0856L564.14 86.2597L560.617 88.8727Z" fill="#2E8256"/>
<path opacity="0.1" d="M560.617 88.8727C561.255 90.3848 562.43 91.0013 564.565 91.2435C565.632 91.3172 566.703 91.173 567.713 90.8197C568.722 90.4664 569.649 89.9113 570.438 89.1883L567.788 86.5533L564.426 89.0856L564.14 86.2597L560.617 88.8727Z" fill="black"/>
<path d="M562.293 88.08C561.983 88.9928 561.863 89.9596 561.941 90.9206C562.041 91.7785 562.368 92.5942 562.888 93.2841C563.225 93.4989 563.607 93.6332 564.004 93.6765C564.401 93.7198 564.803 93.6709 565.178 93.5336C565.865 92.9483 566.417 92.2217 566.797 91.4033C567.177 90.585 567.376 89.6942 567.38 88.792L564.444 89.1223L562.293 88.08Z" fill="#2E8256"/>
<path d="M562.88 93.218C562.88 93.218 559.43 112.302 559.291 113.77C559.151 115.238 561.272 120.772 562.586 120.816C563.9 120.86 566.484 115.921 566.528 114.526C566.572 113.131 565.17 93.4382 565.17 93.4382L562.88 93.218Z" fill="#2E8256"/>
<path opacity="0.1" d="M565.17 93.4969C564.8 93.6599 564.394 93.7226 563.992 93.6788C563.59 93.635 563.207 93.4862 562.881 93.2474L562.83 93.5483C563.158 93.813 563.546 93.9946 563.96 94.0777C564.374 94.1607 564.802 94.1428 565.207 94.0254L565.17 93.4969Z" fill="black"/>
<path d="M564.441 89.0856L574.167 81.6795L574.211 79.4775C574.211 79.4775 576.472 80.3289 576.978 84.3219C575.41 87.7754 572.744 90.6139 569.396 92.3959L567.355 88.7259L564.441 89.0856Z" fill="#E0E0E0"/>
<path d="M563.843 80.4904C562.586 80.6979 561.46 81.3912 560.709 82.4208C559.74 84.0209 559.975 90.1572 559.975 90.1572L562.287 88.08L564.445 89.1222C564.24 87.0744 563.836 83.353 563.836 83.353L563.843 80.4904Z" fill="#E0E0E0"/>
<path d="M503.619 253.715C503.23 254.236 503.157 255.425 502.768 257.032C502.379 258.64 502.239 259.887 502.504 260.702C502.91 261.508 503.489 262.214 504.199 262.77C504.91 263.325 505.734 263.717 506.614 263.917C508.618 264.236 510.668 263.794 512.361 262.677C514.886 261.165 515.877 260.012 521.639 259.594C524.625 259.401 527.463 258.227 529.713 256.254C531.915 254.28 531.401 250.779 527.555 250.801C522.938 250.801 516.464 251.637 510.203 250.801L503.619 253.715Z" fill="#263238"/>
<path d="M481.298 246.47C480.909 246.991 480.836 248.18 480.447 249.788C480.058 251.395 479.918 252.643 480.182 253.458C480.588 254.263 481.167 254.969 481.878 255.525C482.588 256.081 483.413 256.473 484.293 256.672C486.296 256.992 488.347 256.549 490.04 255.432C492.565 253.92 493.556 252.768 499.318 252.349C502.304 252.156 505.142 250.982 507.392 249.01C509.594 247.035 509.08 243.534 505.234 243.556C500.617 243.556 494.143 244.393 487.882 243.556L481.298 246.47Z" fill="#263238"/>
<path d="M481.272 241.618V247.27C481.272 247.27 482.05 249.149 485.272 249.266C486.1 249.319 486.928 249.159 487.676 248.802C488.425 248.444 489.071 247.902 489.551 247.226V241.618H481.272Z" fill="#FFA8A7"/>
<path d="M492.071 204.639C492.115 211.671 490.096 244.099 490.096 244.099C490.096 244.099 487.219 247.732 480.972 244.099L478.851 208.133L492.071 204.639Z" fill="#363636"/>
<path d="M502.482 249.002L503.612 254.654C503.612 254.654 504.39 256.533 507.612 256.65C508.44 256.704 509.268 256.544 510.016 256.185C510.764 255.827 511.408 255.282 511.884 254.603L511.429 248.107L502.482 249.002Z" fill="#FFA8A7"/>
<path d="M508.912 214.328C509.507 217.572 511.929 250.089 511.929 250.089C511.929 250.089 508.736 254.537 502.489 250.896L495.832 219.165L508.912 214.328Z" fill="#363636"/>
<path d="M491.81 226.806V271.734C491.821 271.94 491.88 272.141 491.984 272.319C492.087 272.498 492.231 272.65 492.404 272.762L494.012 273.694C494.197 273.785 494.4 273.832 494.606 273.832C494.812 273.832 495.016 273.785 495.201 273.694L496.808 272.769C496.98 272.654 497.123 272.5 497.226 272.321C497.329 272.141 497.39 271.941 497.403 271.734V226.806C497.403 226.27 497.19 225.756 496.812 225.376C496.434 224.996 495.92 224.782 495.384 224.78H493.828C493.292 224.782 492.779 224.996 492.4 225.376C492.022 225.756 491.81 226.27 491.81 226.806Z" fill="#455A64"/>
<path d="M496.001 224.766C495.63 224.767 495.276 224.916 495.014 225.179C494.753 225.441 494.606 225.797 494.606 226.167V273.334C494.606 273.709 494.871 273.863 495.201 273.679L496.83 272.74C496.997 272.63 497.136 272.482 497.235 272.309C497.335 272.135 497.392 271.941 497.403 271.742V226.167C497.403 225.796 497.255 225.439 496.992 225.176C496.729 224.913 496.373 224.766 496.001 224.766Z" fill="#263238"/>
<path d="M437.785 226.806V271.734C437.773 271.941 437.712 272.142 437.607 272.32C437.503 272.499 437.357 272.65 437.183 272.762L435.583 273.694C435.397 273.784 435.192 273.831 434.985 273.831C434.778 273.831 434.573 273.784 434.387 273.694L432.787 272.769C432.614 272.655 432.47 272.502 432.367 272.322C432.263 272.142 432.204 271.941 432.192 271.734V226.806C432.192 226.27 432.404 225.756 432.783 225.376C433.161 224.996 433.675 224.782 434.211 224.78H435.767C436.303 224.782 436.816 224.996 437.194 225.376C437.573 225.756 437.785 226.27 437.785 226.806Z" fill="#455A64"/>
<path d="M433.583 224.766C433.955 224.767 434.31 224.916 434.573 225.178C434.835 225.441 434.983 225.796 434.985 226.167V273.334C434.985 273.709 434.714 273.863 434.391 273.679L432.761 272.74C432.594 272.63 432.456 272.482 432.356 272.309C432.257 272.135 432.199 271.941 432.189 271.742V226.167C432.189 225.797 432.335 225.441 432.597 225.179C432.858 224.916 433.213 224.767 433.583 224.766Z" fill="#263238"/>
<path d="M461.995 242.668V288.91C462.006 289.117 462.065 289.319 462.168 289.499C462.272 289.679 462.416 289.831 462.59 289.945L464.197 290.87C464.381 290.964 464.585 291.013 464.792 291.013C464.999 291.013 465.202 290.964 465.386 290.87L466.994 289.945C467.166 289.83 467.31 289.677 467.413 289.497C467.516 289.318 467.576 289.117 467.588 288.91V242.668C467.586 242.486 467.513 242.312 467.384 242.185C467.255 242.057 467.08 241.985 466.898 241.985H462.685C462.504 241.985 462.329 242.057 462.2 242.185C462.071 242.312 461.997 242.486 461.995 242.668Z" fill="#455A64"/>
<path d="M466.909 241.985H465.493C465.311 241.985 465.137 242.057 465.008 242.185C464.878 242.312 464.805 242.486 464.803 242.668V290.547C464.803 290.928 465.067 291.082 465.397 290.892L467.005 289.967C467.177 289.852 467.321 289.699 467.424 289.519C467.527 289.34 467.587 289.139 467.599 288.932V242.69C467.601 242.598 467.585 242.507 467.551 242.421C467.517 242.336 467.467 242.258 467.403 242.192C467.338 242.127 467.262 242.075 467.177 242.039C467.092 242.003 467.001 241.985 466.909 241.985Z" fill="#263238"/>
<path d="M500.964 227.87V228.494C500.94 229.059 500.796 229.613 500.543 230.119C500.291 230.625 499.934 231.072 499.496 231.43L466.32 250.463C465.864 250.757 465.34 250.925 464.799 250.952C464.258 250.979 463.719 250.864 463.237 250.617L429.766 231.335C429.305 231.032 428.921 230.625 428.646 230.147C428.37 229.669 428.211 229.133 428.181 228.582V227.951C428.21 227.41 428.378 226.885 428.67 226.428C428.962 225.972 429.368 225.599 429.847 225.345L463.295 206.034C463.818 205.827 464.379 205.732 464.941 205.758C465.502 205.783 466.052 205.927 466.554 206.181L499.357 225.118C499.822 225.418 500.21 225.824 500.49 226.302C500.769 226.78 500.932 227.317 500.964 227.87Z" fill="#2E8256"/>
<g opacity="0.4">
<path opacity="0.4" d="M499.362 225.118L466.56 206.181C466.058 205.927 465.508 205.783 464.946 205.758C464.384 205.732 463.824 205.827 463.301 206.034L429.853 225.338C428.935 225.764 428.898 226.52 429.772 227.026L463.206 246.279C463.688 246.525 464.227 246.639 464.769 246.611C465.31 246.582 465.834 246.412 466.288 246.118L499.465 227.107C499.649 227.008 499.801 226.859 499.904 226.677C500.006 226.496 500.055 226.288 500.044 226.08C500.034 225.871 499.964 225.67 499.843 225.5C499.722 225.329 499.556 225.197 499.362 225.118Z" fill="white"/>
</g>
<path d="M494.684 154.713L516.689 166.192L505.752 196.088L485.222 184.586L494.684 154.713Z" fill="#2E8256"/>
<path d="M495.686 157.634L514.146 167.271L504.465 192.969L487.238 183.324L495.686 157.634Z" fill="#F5F5F5"/>
<path opacity="0.15" d="M499.578 160.408L499.938 159.498C500.136 158.992 501.67 159.293 503.373 160.166L506.617 161.847C508.32 162.72 509.553 163.843 509.34 164.35L508.981 165.26L499.578 160.408Z" fill="black"/>
<path d="M499.939 156.753C500.064 156.437 500.732 156.489 501.407 156.87L502.684 157.553C502.684 157.553 503.47 155.579 506.391 156.944C509.312 158.309 508.652 160.614 508.652 160.614L510.002 161.348C510.736 161.759 511.279 162.353 511.191 162.669L511.03 163.256L499.69 157.34L499.939 156.753Z" fill="#363636"/>
<path d="M501.176 158.082C502.226 158.595 502.644 158.816 502.336 159.623C501.991 160.519 501.668 161.157 501.668 161.157L506.681 163.777C506.681 163.777 507.1 162.647 507.283 162.207C507.467 161.766 507.834 161.568 508.634 161.979L508.927 161.671L501.022 157.634L501.176 158.082Z" fill="#263238"/>
<path d="M499.371 160.46L499.731 159.542C499.929 159.036 501.463 159.337 503.159 160.218L506.41 161.891C508.106 162.772 509.346 163.888 509.126 164.394L508.766 165.312L499.371 160.46Z" fill="#363636"/>
<path d="M438.209 213.249C438.209 213.249 467.356 204.441 472.42 203.069C477.485 201.696 487.21 199.347 490.036 200.617C492.862 201.887 494.315 203.369 494.58 207.465C494.631 208.236 494.58 211.987 494.58 211.987C494.58 211.987 480.494 216.347 468.948 216.347C457.403 216.347 438.209 213.249 438.209 213.249Z" fill="#263238"/>
<path d="M462.806 163.704L463.019 174.325L452.779 177.709L451.377 163.271L462.806 163.704Z" fill="#FFA8A7"/>
<path d="M470.87 153.509C470.87 153.509 473.123 157.45 472.756 157.795C472.389 158.14 470.488 158.405 470.488 158.405L470.87 153.509Z" fill="#F28F8F"/>
<path d="M465.424 140.539C467.626 142.066 469.997 144.892 470.907 153.112C471.898 162.126 469.74 165.025 468.705 165.774C467.237 166.89 461.27 166.706 459.163 165.73C456.506 164.504 451.302 161.179 449.1 156.188C446.502 150.316 446.766 143.027 450.95 140.701C456.858 137.434 463.538 139.24 465.424 140.539Z" fill="#FFA8A7"/>
<path d="M469.177 143.805C467.989 145.176 466.567 146.327 464.979 147.204C463.958 148.819 465.595 153.267 463.357 154.346C463.357 154.346 462.329 150.976 459.481 151.534C456.633 152.092 456.384 155.784 458.299 157.942C460.215 160.1 461.874 159.168 461.874 159.168C461.986 160.292 461.808 161.426 461.357 162.462C460.906 163.498 460.197 164.4 459.298 165.084C458.187 165.838 456.911 166.312 455.579 166.467C454.246 166.621 452.895 166.452 451.642 165.972C449.704 165.238 446.46 162.53 444.647 158.933C440.823 151.321 439.934 145.075 444.801 142.785C445.183 139.181 446.687 137.742 449.873 136.862C456.714 134.968 462.256 139.181 468.025 137.992C471.034 137.346 470.88 141.743 469.177 143.805Z" fill="#263238"/>
<path d="M449.836 140.15L446.29 138.631C446.382 138.387 446.523 138.164 446.703 137.976C446.884 137.788 447.1 137.638 447.34 137.536C447.58 137.434 447.838 137.381 448.099 137.382C448.359 137.382 448.617 137.435 448.857 137.538C449.096 137.64 449.313 137.791 449.493 137.979C449.673 138.168 449.813 138.391 449.904 138.635C449.996 138.879 450.037 139.139 450.025 139.399C450.013 139.66 449.949 139.915 449.836 140.15Z" fill="#263238"/>
<path d="M439.185 209.836C439.185 215.436 438.451 221.477 440.807 225.58C443.06 229.551 452.999 237.823 464.912 235.82C472.692 234.506 497.839 224.927 497.839 224.927C497.839 224.927 508.966 220.809 509.018 217.881C509.018 217.147 509.091 216.413 509.018 215.679C508.783 211.781 507.205 207.605 499.065 207.803C490.169 208.038 463.774 212.361 463.774 212.361L439.185 209.836Z" fill="#363636"/>
<path d="M440.096 174.501C441.057 171.565 445.021 167.447 448.735 168.137C455.554 169.407 463.011 171.617 464.993 172.196C464.993 172.196 464.105 187.229 471.819 191.78L472.091 218.204C472.091 218.204 471.533 220.09 468.59 221.962C465.404 223.987 459.238 224.898 451.487 222.776C441.072 219.951 439.178 213.968 439.178 213.968C439.178 213.968 439.259 196.25 439.178 188.146C439.105 180.814 439.435 176.512 440.096 174.501Z" fill="#F0F0F0"/>
<path d="M471.856 195.31C471.856 195.31 467.988 191.302 466.564 186.451C466.564 186.451 466.351 193.681 471.878 197.512L471.856 195.31Z" fill="#E0E0E0"/>
<path d="M465.002 172.196C469.215 173.459 471.777 173.664 476.43 180.843C481.084 188.022 491.609 201.395 492.615 203.12C494.017 205.491 494.281 209.095 493.07 211.275C491.94 213.315 489.224 212.111 484.607 208.067C480.144 204.148 470.727 193.387 470.727 193.387C467.804 186.638 465.875 179.5 465.002 172.196Z" fill="#FFA8A7"/>
<path d="M464.998 172.196C467.085 172.636 469.123 173.283 471.083 174.127C473.125 174.789 474.928 176.034 476.272 177.709C480.052 182.759 484.926 191.295 484.926 191.295C484.926 191.295 484.06 197.901 475.92 200.25L471.919 195.376C470.144 193.479 468.687 191.308 467.603 188.946C465.732 184.917 463.669 178.524 464.998 172.196Z" fill="#F0F0F0"/>
<path d="M491.647 212.28C495.545 211.81 503.949 200.03 506.533 196C508.576 192.73 511.257 189.904 514.416 187.691C518.534 184.645 517.939 179.962 516.141 175.676C515.517 174.208 513.403 175.154 513.403 175.154L512.669 177.195L511.377 180.718C510.504 181.526 510.012 181.79 509.953 181.548C509.843 181.092 510.592 179.199 510.57 177.224C510.57 174.846 508.889 176.41 508.368 177.224C507.687 178.485 507.1 179.796 506.614 181.144C505.784 183.272 506.122 185.423 505.146 186.876C504.169 188.33 490.568 201.322 490.568 201.322L491.647 212.28Z" fill="#FFA8A7"/>
<path d="M456.198 213.293V242.91C456.193 243.014 456.163 243.115 456.113 243.205C456.062 243.296 455.99 243.373 455.904 243.431L455.097 243.894C455.005 243.941 454.903 243.965 454.799 243.965C454.696 243.965 454.594 243.941 454.502 243.894L453.702 243.431C453.614 243.374 453.541 243.297 453.489 243.207C453.436 243.116 453.406 243.014 453.401 242.91V213.293C453.401 213.024 453.508 212.767 453.698 212.577C453.888 212.387 454.145 212.28 454.414 212.28H455.192C455.325 212.28 455.456 212.306 455.579 212.357C455.701 212.408 455.812 212.483 455.906 212.577C455.999 212.671 456.073 212.783 456.123 212.906C456.173 213.029 456.199 213.16 456.198 213.293Z" fill="#263238"/>
<path d="M454.075 212.28C454.27 212.28 454.456 212.357 454.594 212.495C454.732 212.633 454.809 212.819 454.809 213.014V243.688C454.809 243.879 454.67 243.96 454.508 243.864L453.693 243.394C453.611 243.339 453.542 243.265 453.492 243.178C453.443 243.092 453.414 242.995 453.407 242.895V212.948C453.422 212.776 453.497 212.615 453.619 212.492C453.742 212.37 453.903 212.295 454.075 212.28Z" fill="#455A64"/>
<path d="M441.269 204.859V234.476C441.263 234.58 441.234 234.681 441.183 234.772C441.132 234.862 441.061 234.939 440.975 234.997L440.168 235.46C440.075 235.507 439.974 235.531 439.87 235.531C439.767 235.531 439.665 235.507 439.573 235.46L438.773 234.997C438.686 234.94 438.613 234.863 438.561 234.772C438.509 234.682 438.478 234.581 438.472 234.476V204.859C438.472 204.591 438.579 204.333 438.769 204.143C438.959 203.953 439.216 203.847 439.485 203.847H440.263C440.396 203.847 440.527 203.873 440.649 203.924C440.772 203.975 440.883 204.049 440.977 204.144C441.07 204.238 441.144 204.35 441.194 204.472C441.244 204.595 441.269 204.727 441.269 204.859Z" fill="#263238"/>
<path d="M439.183 203.847C439.365 203.855 439.537 203.932 439.666 204.061C439.795 204.19 439.871 204.362 439.88 204.544V235.284C439.88 235.475 439.74 235.555 439.579 235.46L438.764 234.99C438.682 234.934 438.613 234.86 438.563 234.774C438.514 234.687 438.484 234.591 438.478 234.491V204.544C438.487 204.361 438.564 204.187 438.695 204.058C438.825 203.929 438.999 203.854 439.183 203.847Z" fill="#455A64"/>
<path d="M432.423 180.175C432.912 179.936 433.447 179.804 433.991 179.788C434.535 179.771 435.076 179.871 435.579 180.08L462.069 192.308C462.547 192.548 462.951 192.913 463.236 193.365L463.361 193.571C463.42 193.688 463.478 193.805 463.53 193.93C463.661 194.242 463.731 194.576 463.735 194.914V214.526C463.718 215.06 463.577 215.582 463.322 216.051C463.067 216.52 462.706 216.923 462.267 217.227C461.804 217.449 461.302 217.577 460.789 217.604C460.276 217.63 459.763 217.555 459.28 217.381C459.221 217.366 459.165 217.344 459.111 217.315L457.797 216.706L432.628 205.08C432.149 204.829 431.743 204.457 431.45 204.002C431.158 203.546 430.99 203.022 430.962 202.481V182.869C430.979 182.337 431.12 181.816 431.373 181.349C431.627 180.881 431.986 180.479 432.423 180.175Z" fill="#2E8256"/>
<path opacity="0.4" d="M430.924 182.869C430.895 182.662 430.926 182.452 431.013 182.263C431.1 182.073 431.239 181.913 431.415 181.801C431.591 181.689 431.795 181.629 432.003 181.63C432.212 181.631 432.415 181.691 432.59 181.805L459.073 194.033C459.551 194.277 459.954 194.644 460.24 195.097L463.22 193.372C462.938 192.919 462.537 192.551 462.061 192.308L435.578 180.072C435.075 179.863 434.534 179.764 433.989 179.78C433.445 179.797 432.911 179.929 432.422 180.168C431.977 180.469 431.61 180.87 431.35 181.339C431.09 181.809 430.944 182.333 430.924 182.869Z" fill="white"/>
<path opacity="0.1" d="M459.247 217.389C459.73 217.562 460.243 217.637 460.756 217.611C461.269 217.585 461.771 217.457 462.234 217.235C462.673 216.93 463.034 216.527 463.289 216.058C463.544 215.589 463.685 215.067 463.702 214.534V194.921C463.698 194.583 463.628 194.249 463.497 193.938C463.445 193.813 463.387 193.695 463.328 193.578L463.203 193.372L460.223 195.097C460.531 195.554 460.704 196.088 460.722 196.639V216.258C460.749 216.446 460.726 216.637 460.655 216.813C460.583 216.988 460.467 217.141 460.316 217.257C460.166 217.372 459.987 217.445 459.799 217.468C459.611 217.491 459.421 217.464 459.247 217.389Z" fill="black"/>
</svg>
