<svg width="21" height="21" viewBox="0 0 21 21" fill="none" xmlns="http://www.w3.org/2000/svg">
<path d="M4 0H6V4C6 4.55228 5.55228 5 5 5C4.44772 5 4 4.55228 4 4V0Z" fill="#2E8256"/>
<path d="M9.5 0H11.5V4C11.5 4.55228 11.0523 5 10.5 5C9.94772 5 9.5 4.55228 9.5 4V0Z" fill="#2E8256"/>
<path d="M15 0H17V4C17 4.55228 16.5523 5 16 5C15.4477 5 15 4.55228 15 4V0Z" fill="#2E8256"/>
<rect x="1" y="2" width="19" height="18" rx="2" stroke="#2E8256" stroke-width="2"/>
<circle cx="5" cy="8" r="1" fill="#2E8256"/>
<circle cx="8.59961" cy="8" r="1" fill="#2E8256"/>
<circle cx="12.2002" cy="8" r="1" fill="#2E8256"/>
<circle cx="15.7998" cy="8" r="1" fill="#2E8256"/>
<circle cx="5" cy="11.7002" r="1" fill="#2E8256"/>
<circle cx="8.59961" cy="11.7002" r="1" fill="#2E8256"/>
<circle cx="12.2002" cy="11.7002" r="1" fill="#2E8256"/>
<circle cx="15.7998" cy="11.7002" r="1" fill="#2E8256"/>
<circle cx="5" cy="15" r="1" fill="#2E8256"/>
<circle cx="8.59961" cy="15" r="1" fill="#2E8256"/>
<circle cx="12.2002" cy="15" r="1" fill="#2E8256"/>
<circle cx="15.7998" cy="15" r="1" fill="#2E8256"/>
</svg>
