<svg width="28" height="26" viewBox="0 0 28 26" fill="none" xmlns="http://www.w3.org/2000/svg">
<path d="M2.01855 1.96167H9.11635C10.3711 1.96167 11.5746 2.47858 12.4626 3.39856C13.3498 4.31862 13.8482 5.56651 13.8482 6.86763V24.0386C13.8482 23.0627 13.4744 22.1268 12.8088 21.4368C12.1432 20.7468 11.2402 20.3591 10.2993 20.3591H2.01855V1.96167Z" stroke="white" stroke-width="3" stroke-linecap="round" stroke-linejoin="round"/>
<path d="M25.6783 1.96167H18.5805C17.3258 1.96167 16.1223 2.47858 15.2343 3.39856C14.347 4.31862 13.8486 5.56651 13.8486 6.86763V24.0386C13.8486 23.0627 14.2224 22.1268 14.8881 21.4368C15.5537 20.7468 16.4567 20.3591 17.3975 20.3591H25.6783V1.96167Z" stroke="white" stroke-width="3" stroke-linecap="round" stroke-linejoin="round"/>
</svg>
