<svg width="350" height="227" viewBox="0 0 350 227" fill="none" xmlns="http://www.w3.org/2000/svg">
<path d="M74.0078 135.156C79.5849 142.97 80.1748 153.205 80.5671 162.863C80.9608 172.52 81.5651 182.819 87.1726 190.539C89.8335 194.196 93.4607 197.008 96.0149 200.743C98.2245 204.024 99.5297 207.864 99.7936 211.854C100.118 215.063 99.4114 218.291 97.7831 221.042C96.3726 222.977 94.4862 224.487 92.3185 225.41C90.1522 226.334 87.7841 226.639 85.4649 226.294C80.8166 225.532 76.5043 223.326 73.1006 219.965C74.0381 218.62 74.9597 217.277 75.8827 215.918C76.7985 217.429 78.1701 218.588 79.784 219.219C81.3978 219.851 83.1675 219.917 84.8232 219.412C86.4774 218.905 87.9268 217.852 88.9494 216.415C89.9705 214.976 90.5099 213.231 90.4825 211.448C90.4825 206.448 86.2048 202.791 82.9252 199.118C77.4894 192.962 74.0352 185.214 73.04 176.942" fill="#E0E0E0"/>
<path d="M58.1538 226.621C60.444 226.621 62.7112 226.152 64.8241 225.238C66.937 224.323 68.8537 222.983 70.4604 221.296C72.0685 219.609 73.3362 217.609 74.1886 215.411C75.0409 213.214 75.4635 210.863 75.4289 208.494L74.5217 146.219C74.4467 141.047 74.1598 135.28 70.6075 131.671C68.0692 129.061 64.3655 128.108 60.8594 127.404C51.9103 125.638 42.5704 124.748 33.7424 127.061C24.9159 129.373 16.6634 135.328 13.1112 144.032C8.87965 154.628 12.3252 167.176 8.28979 177.849C6.49132 182.615 3.28664 186.71 1.54874 191.492C-1.24776 199.227 0.0372833 207.525 3.06022 215.354C4.34093 218.676 6.55477 221.524 9.41473 223.532C12.2761 225.541 15.6539 226.617 19.1124 226.621H58.1538Z" fill="#F5F5F5"/>
<path d="M54.1631 126.671C54.4573 126.451 54.7919 126.298 55.1452 126.217C56.1664 125.983 57.2351 126.12 58.1682 126.607C59.671 127.344 60.845 128.646 61.4478 130.248C62.1776 132.348 62.5901 134.551 62.6723 136.781C63.5795 146.533 64.3496 160.034 64.8645 174.958C65.1212 182.427 65.3635 189.523 65.5741 196.008C65.675 199.238 65.7717 202.295 65.8611 205.181C65.9375 208.056 66.089 210.744 66.0125 213.214C65.9851 215.445 65.5856 217.654 64.8342 219.745C64.2227 221.315 63.2896 222.727 62.0983 223.887C61.3397 224.615 60.4512 225.183 59.4835 225.558C59.1547 225.697 58.8085 225.786 58.4552 225.824C59.7518 225.394 60.9373 224.661 61.9166 223.684C63.0458 222.527 63.9169 221.13 64.4708 219.589C65.1818 217.54 65.5409 215.376 65.5294 213.198C65.5294 210.76 65.4082 208.088 65.3029 205.213C65.1962 202.337 65.0751 199.258 64.9554 196.024C64.7275 189.554 64.4563 182.443 64.1996 174.989C63.6703 160.066 62.9896 146.563 62.1891 136.812C62.1473 134.632 61.781 132.469 61.1002 130.406C60.5623 128.866 59.4835 127.594 58.0773 126.843C57.1889 126.369 56.1779 126.198 55.1914 126.357C54.4501 126.499 54.1934 126.701 54.1631 126.671Z" fill="#E0E0E0"/>
<path d="M34.0306 127.42C34.0306 127.42 32.1412 122.498 35.118 120.81C38.0963 119.122 46.4397 117.029 47.9208 119.107C49.402 121.185 49.9155 125.748 49.9155 125.748L47.3007 125.67C47.3007 125.67 46.6358 121.419 44.9123 121.419C43.1888 121.419 36.8112 122.185 36.2819 123.342C36.0166 124.493 36.0166 125.692 36.2819 126.843L34.1056 127.732" fill="#E0E0E0"/>
<path d="M6.44643 184.631L55.2807 185.537V220.137H7.41273C3.53743 214.712 1.47934 208.127 1.54857 201.384C1.54857 189.601 6.44643 184.631 6.44643 184.631Z" fill="#E0E0E0"/>
<path d="M54.252 197.087C54.252 197.273 42.4775 197.431 27.9672 197.431C13.4568 197.431 1.69824 197.273 1.69824 197.087C1.69824 196.899 13.4568 196.727 27.9672 196.727C42.4775 196.727 54.252 196.883 54.252 197.087Z" fill="#EBEBEB"/>
<path d="M52.0763 197.274C52.1657 197.274 52.333 197.821 52.6806 198.696C52.8897 199.229 53.1277 199.752 53.3901 200.259C53.5776 200.617 53.6469 201.029 53.5877 201.43C53.5416 201.686 53.4147 201.917 53.2243 202.087C53.0123 202.251 52.7469 202.324 52.4844 202.29C52.245 202.251 52.0215 202.145 51.8354 201.985C51.6494 201.826 51.508 201.618 51.4258 201.384C51.2542 201.055 51.146 200.694 51.1085 200.321C51.0566 199.717 51.1331 199.109 51.335 198.54C51.6523 197.603 51.9854 197.118 52.0604 197.149C52.1369 197.18 51.9854 197.759 51.7893 198.712C51.7042 199.229 51.7042 199.758 51.7893 200.275C51.7893 200.821 52.1671 201.51 52.6041 201.54C53.0426 201.572 53.1334 200.993 52.8623 200.477C52.6229 199.974 52.4267 199.452 52.2724 198.914C51.9854 197.899 51.9854 197.29 52.0763 197.274Z" fill="#EBEBEB"/>
<path d="M37.4736 128.498C37.7996 128.392 38.1342 128.308 38.4717 128.248C39.1365 128.108 40.1028 127.92 41.3734 127.748C42.908 127.508 44.4627 127.425 46.0131 127.498C48.1058 127.565 50.1509 128.16 51.9681 129.233C54.1315 130.626 55.8535 132.641 56.9265 135.03C58.151 137.741 58.8245 140.682 58.9067 143.673C58.9658 146.94 58.8202 150.207 58.4683 153.455C58.1856 156.921 58.0947 160.402 58.1957 163.878C58.4524 171.02 59.3149 177.803 60.01 183.974C60.6994 189.445 61.1119 194.948 61.2489 200.462C61.3181 204.189 61.0903 207.915 60.5682 211.603C60.372 212.9 60.1456 213.901 60.01 214.573C59.9538 214.923 59.873 215.268 59.7677 215.604C59.7692 215.253 59.8038 214.902 59.873 214.557C59.9639 213.87 60.16 212.87 60.3115 211.557C60.721 207.88 60.8768 204.177 60.7802 200.477C60.6749 195.789 60.1297 190.225 59.3899 184.054C58.6486 177.881 57.7731 171.098 57.4702 163.878C57.3664 160.375 57.463 156.868 57.7573 153.377C58.1149 150.161 58.2764 146.925 58.2404 143.689C58.1769 140.777 57.5395 137.911 56.3669 135.266C55.3574 132.965 53.7247 131.016 51.6667 129.654C49.9288 128.593 47.9688 127.982 45.9525 127.874C44.4411 127.777 42.9238 127.819 41.4182 127.998C40.149 128.139 39.1812 128.28 38.5164 128.373C38.1745 128.451 37.8241 128.493 37.4736 128.498Z" fill="#E0E0E0"/>
<path d="M349.429 32.2341H60.9795V45.721H349.429V32.2341Z" fill="#2E8256"/>
<path d="M83.68 45.7209H74.2334V225.074H83.68V45.7209Z" fill="#263238"/>
<path d="M321.904 45.7209H312.457V225.074H321.904V45.7209Z" fill="#263238"/>
<path d="M312.457 88.3207H83.5303V162.284H312.457V88.3207Z" fill="#2E8256"/>
<path d="M312.457 59.0202H83.6807V69.4899H312.457V59.0202Z" fill="#2E8256"/>
<path d="M254.523 8.9812H141.601C140.173 8.9812 139.017 10.1785 139.017 11.6531V56.3482C139.017 57.8228 140.173 59.0201 141.601 59.0201H254.523C255.949 59.0201 257.107 57.8228 257.107 56.3482V11.6531C257.107 10.1785 255.949 8.9812 254.523 8.9812Z" fill="#2E8256"/>
<path d="M254.523 8.9812H141.601C140.173 8.9812 139.017 10.1785 139.017 11.6531V56.3482C139.017 57.8228 140.173 59.0201 141.601 59.0201H254.523C255.949 59.0201 257.107 57.8228 257.107 56.3482V11.6531C257.107 10.1785 255.949 8.9812 254.523 8.9812Z" fill="#2E8256"/>
<g opacity="0.4">
<path opacity="0.4" d="M254.523 8.9812H141.601C140.173 8.9812 139.017 10.1785 139.017 11.6531V56.3482C139.017 57.8228 140.173 59.0201 141.601 59.0201H254.523C255.949 59.0201 257.107 57.8228 257.107 56.3482V11.6531C257.107 10.1785 255.949 8.9812 254.523 8.9812Z" fill="black"/>
</g>
<path d="M246.042 137.86H148.326C144.668 137.842 141.166 136.329 138.586 133.65C136.006 130.969 134.557 127.342 134.557 123.56C134.557 119.769 136.013 116.13 138.608 113.45C141.201 110.768 144.719 109.261 148.386 109.261H246.102C247.92 109.26 249.719 109.628 251.398 110.346C253.077 111.064 254.601 112.117 255.886 113.445C257.171 114.773 258.19 116.35 258.883 118.086C259.579 119.822 259.935 121.682 259.933 123.56C259.933 125.443 259.573 127.308 258.875 129.047C258.175 130.786 257.151 132.364 255.861 133.693C254.57 135.022 253.038 136.074 251.354 136.789C249.669 137.504 247.863 137.867 246.042 137.86Z" fill="#2E8256"/>
<g opacity="0.4">
<path opacity="0.4" d="M246.042 137.86H148.326C144.668 137.842 141.166 136.329 138.586 133.65C136.006 130.969 134.557 127.342 134.557 123.56C134.557 119.769 136.013 116.13 138.608 113.45C141.201 110.768 144.719 109.261 148.386 109.261H246.102C247.92 109.26 249.719 109.628 251.398 110.346C253.077 111.064 254.601 112.117 255.886 113.445C257.171 114.773 258.19 116.35 258.883 118.086C259.579 119.822 259.935 121.682 259.933 123.56C259.933 125.443 259.573 127.308 258.875 129.047C258.175 130.786 257.151 132.364 255.861 133.693C254.57 135.022 253.038 136.074 251.354 136.789C249.669 137.504 247.863 137.867 246.042 137.86Z" fill="black"/>
</g>
<path d="M153.193 225.075H145.771V4.24703C145.771 3.23169 146.162 2.2568 146.856 1.53898C147.551 0.821171 148.493 0.418213 149.475 0.418213C150.459 0.418213 151.402 0.821171 152.099 1.53898C152.795 2.25535 153.189 3.23025 153.193 4.24703V225.075Z" fill="#E0E0E0"/>
<path d="M153.194 225.074C153.194 225.074 153.194 224.653 153.194 223.855C153.194 223.058 153.194 221.871 153.194 220.34C153.194 217.215 153.194 212.682 153.194 206.837C153.194 195.133 153.194 178.24 153.072 157.362C152.951 136.485 152.997 111.653 152.967 84.0857C152.967 70.3028 152.967 55.8324 152.967 40.8291V6.26146C153.01 5.31256 152.974 4.36078 152.86 3.41766C152.755 2.98582 152.566 2.57852 152.308 2.22178C152.048 1.86504 151.723 1.56464 151.349 1.33933C150.611 0.87138 149.724 0.719721 148.877 0.9147C148.03 1.10968 147.292 1.63831 146.815 2.38645C146.419 3.03927 146.233 3.80617 146.285 4.57453V22.0765C146.285 28.6711 146.285 35.2036 146.285 41.6264C146.285 54.4878 146.285 66.9737 146.285 79.0075C146.285 103.058 146.285 125.28 146.285 144.876C146.18 184.038 146.105 212.745 146.075 225.074L145.984 224.981H151.575H153.406C153.406 224.981 152.846 224.981 151.622 224.981H145.984H145.877V224.871C145.877 212.541 145.772 183.834 145.667 144.672C145.667 125.076 145.667 102.854 145.667 78.8039C145.667 66.7715 145.667 54.2841 145.667 41.4227V4.57453C145.61 3.65018 145.838 2.73162 146.316 1.94882C146.753 1.25411 147.374 0.706722 148.107 0.373091C148.839 0.0394596 149.651 -0.0659952 150.44 0.0712124C151.231 0.206976 151.965 0.578189 152.553 1.14002C153.14 1.7004 153.559 2.42687 153.753 3.22989C153.882 4.23512 153.922 5.25046 153.873 6.26146V17.9978C153.873 25.7695 153.873 33.4112 153.873 40.923C153.873 55.9725 153.873 70.4746 153.873 84.2893C153.873 111.903 153.798 136.765 153.753 157.659C153.707 178.552 153.662 195.367 153.632 207.057C153.632 212.854 153.632 217.355 153.632 220.448C153.632 222.011 153.632 223.106 153.632 223.918C153.632 224.731 153.194 225.074 153.194 225.074Z" fill="#263238"/>
<path d="M250.033 225.075H242.611V4.24703C242.611 3.23169 243.002 2.2568 243.696 1.53898C244.391 0.821171 245.333 0.418213 246.315 0.418213C247.299 0.418213 248.242 0.821171 248.938 1.53898C249.636 2.25535 250.029 3.23025 250.033 4.24703V225.075Z" fill="#E0E0E0"/>
<path d="M250.033 225.075C250.033 225.075 250.033 224.653 250.033 223.856C250.033 223.058 250.033 221.871 250.033 220.34C250.033 217.215 250.033 212.683 250.033 206.838C250.033 195.133 249.958 178.241 249.912 157.362C249.867 136.485 249.837 111.653 249.807 84.0858C249.807 70.303 249.807 55.8326 249.807 40.8293V6.26159C249.85 5.31269 249.814 4.36091 249.701 3.41779C249.595 2.98595 249.407 2.57865 249.148 2.22191C248.888 1.86517 248.562 1.56477 248.19 1.33946C247.45 0.871511 246.563 0.719851 245.718 0.91483C244.871 1.10981 244.132 1.63844 243.656 2.38658C243.259 3.0394 243.074 3.8063 243.126 4.57466V22.0766C243.126 28.6712 243.126 35.2038 243.126 41.6265C243.126 54.4879 243.126 66.9739 243.126 79.0077C243.126 103.058 243.126 125.28 243.126 144.876C243.02 184.038 242.945 212.745 242.914 225.075L242.823 224.981H248.416H250.245C250.245 224.981 249.686 224.981 248.461 224.981H242.823H242.718V224.871C242.718 212.541 242.613 183.834 242.506 144.672C242.506 125.076 242.506 102.854 242.506 78.804C242.506 66.7716 242.506 54.2843 242.506 41.4229V4.57466C242.451 3.65031 242.678 2.73175 243.157 1.94895C243.736 1.01305 244.651 0.350105 245.699 0.104576C246.749 -0.140954 247.85 0.0497091 248.764 0.636092C249.674 1.22103 250.326 2.15258 250.577 3.23003C250.718 4.23381 250.763 5.24915 250.714 6.26159V17.9979C250.714 25.7697 250.714 33.4114 250.714 40.9231C250.714 55.9727 250.714 70.4748 250.714 84.2895C250.714 111.903 250.623 136.765 250.593 157.66C250.563 178.553 250.502 195.367 250.472 207.057C250.472 212.855 250.472 217.355 250.472 220.449C250.472 222.011 250.472 223.106 250.472 223.918C250.472 224.731 250.033 225.075 250.033 225.075Z" fill="#263238"/>
</svg>
